<mxfile host="app.diagrams.net" agent="Mozilla/5.0 (Windows NT 10.0; Win64; x64) AppleWebKit/537.36 (KHTML, like Gecko) Chrome/134.0.0.0 Safari/537.36 Edg/134.0.0.0" version="26.1.1">
  <diagram name="第 1 页" id="YFZeaB-K9KjvvLirrz5h">
    <mxGraphModel dx="953" dy="635" grid="1" gridSize="10" guides="1" tooltips="1" connect="1" arrows="1" fold="1" page="1" pageScale="1" pageWidth="2336" pageHeight="1654" math="0" shadow="0">
      <root>
        <mxCell id="0" />
        <mxCell id="1" parent="0" />
        <mxCell id="NP07StkK-O7kic4M9z5p-1" value="" style="rounded=0;whiteSpace=wrap;html=1;fillColor=default;" parent="1" vertex="1">
          <mxGeometry x="949.86" y="710" width="120" height="180" as="geometry" />
        </mxCell>
        <mxCell id="NP07StkK-O7kic4M9z5p-2" value="寄存器文件" style="text;html=1;align=center;verticalAlign=middle;whiteSpace=wrap;rounded=0;" parent="1" vertex="1">
          <mxGeometry x="939.86" y="710" width="90" height="40" as="geometry" />
        </mxCell>
        <mxCell id="NP07StkK-O7kic4M9z5p-3" value="Rs编号" style="text;html=1;align=center;verticalAlign=middle;whiteSpace=wrap;rounded=0;" parent="1" vertex="1">
          <mxGeometry x="949.86" y="750" width="60" height="30" as="geometry" />
        </mxCell>
        <mxCell id="Pv4LteulCFaErLVc3rtw-42" style="edgeStyle=orthogonalEdgeStyle;rounded=0;orthogonalLoop=1;jettySize=auto;html=1;exitX=0;exitY=0.5;exitDx=0;exitDy=0;entryX=0;entryY=0.25;entryDx=0;entryDy=0;" parent="1" source="NP07StkK-O7kic4M9z5p-4" target="Pv4LteulCFaErLVc3rtw-38" edge="1">
          <mxGeometry relative="1" as="geometry" />
        </mxCell>
        <mxCell id="Pv4LteulCFaErLVc3rtw-43" value="5" style="edgeLabel;html=1;align=center;verticalAlign=middle;resizable=0;points=[];" parent="Pv4LteulCFaErLVc3rtw-42" vertex="1" connectable="0">
          <mxGeometry x="0.336" y="-1" relative="1" as="geometry">
            <mxPoint as="offset" />
          </mxGeometry>
        </mxCell>
        <mxCell id="NP07StkK-O7kic4M9z5p-4" value="Rt编号" style="text;html=1;align=center;verticalAlign=middle;whiteSpace=wrap;rounded=0;" parent="1" vertex="1">
          <mxGeometry x="949.86" y="790" width="60" height="30" as="geometry" />
        </mxCell>
        <mxCell id="Pv4LteulCFaErLVc3rtw-35" style="edgeStyle=orthogonalEdgeStyle;rounded=0;orthogonalLoop=1;jettySize=auto;html=1;exitX=1;exitY=0.5;exitDx=0;exitDy=0;entryX=1;entryY=0.75;entryDx=0;entryDy=0;" parent="1" source="NP07StkK-O7kic4M9z5p-5" target="Pv4LteulCFaErLVc3rtw-24" edge="1">
          <mxGeometry relative="1" as="geometry">
            <Array as="points">
              <mxPoint x="1080" y="755" />
              <mxPoint x="1080" y="650" />
              <mxPoint x="850" y="650" />
              <mxPoint x="850" y="368" />
              <mxPoint x="810" y="368" />
            </Array>
          </mxGeometry>
        </mxCell>
        <mxCell id="Pv4LteulCFaErLVc3rtw-36" value="32" style="edgeLabel;html=1;align=center;verticalAlign=middle;resizable=0;points=[];" parent="Pv4LteulCFaErLVc3rtw-35" vertex="1" connectable="0">
          <mxGeometry x="0.8331" y="-3" relative="1" as="geometry">
            <mxPoint x="-17" y="3" as="offset" />
          </mxGeometry>
        </mxCell>
        <mxCell id="_0G32NAz595wTfVrgWNU-169" style="edgeStyle=orthogonalEdgeStyle;rounded=0;orthogonalLoop=1;jettySize=auto;html=1;exitX=1;exitY=0.5;exitDx=0;exitDy=0;" parent="1" edge="1">
          <mxGeometry relative="1" as="geometry">
            <mxPoint x="1265" y="755" as="targetPoint" />
            <mxPoint x="1074.8600000000001" y="755" as="sourcePoint" />
          </mxGeometry>
        </mxCell>
        <mxCell id="_0G32NAz595wTfVrgWNU-170" value="32" style="edgeLabel;html=1;align=center;verticalAlign=middle;resizable=0;points=[];" parent="_0G32NAz595wTfVrgWNU-169" vertex="1" connectable="0">
          <mxGeometry x="0.73" y="1" relative="1" as="geometry">
            <mxPoint as="offset" />
          </mxGeometry>
        </mxCell>
        <mxCell id="NP07StkK-O7kic4M9z5p-5" value="Rs值" style="text;html=1;align=center;verticalAlign=middle;whiteSpace=wrap;rounded=0;" parent="1" vertex="1">
          <mxGeometry x="1009.86" y="740" width="60" height="30" as="geometry" />
        </mxCell>
        <mxCell id="NP07StkK-O7kic4M9z5p-6" value="Rt值" style="text;html=1;align=center;verticalAlign=middle;whiteSpace=wrap;rounded=0;" parent="1" vertex="1">
          <mxGeometry x="1009.86" y="820" width="60" height="30" as="geometry" />
        </mxCell>
        <mxCell id="NP07StkK-O7kic4M9z5p-7" value="写寄存器编号" style="text;html=1;align=center;verticalAlign=middle;whiteSpace=wrap;rounded=0;" parent="1" vertex="1">
          <mxGeometry x="949.86" y="850" width="60" height="30" as="geometry" />
        </mxCell>
        <mxCell id="NP07StkK-O7kic4M9z5p-8" value="" style="endArrow=classic;html=1;rounded=0;" parent="1" edge="1">
          <mxGeometry width="50" height="50" relative="1" as="geometry">
            <mxPoint x="819.86" y="765" as="sourcePoint" />
            <mxPoint x="949.86" y="764.5" as="targetPoint" />
          </mxGeometry>
        </mxCell>
        <mxCell id="NP07StkK-O7kic4M9z5p-19" value="5" style="edgeLabel;html=1;align=center;verticalAlign=middle;resizable=0;points=[];" parent="NP07StkK-O7kic4M9z5p-8" vertex="1" connectable="0">
          <mxGeometry x="0.3701" y="-1" relative="1" as="geometry">
            <mxPoint as="offset" />
          </mxGeometry>
        </mxCell>
        <mxCell id="NP07StkK-O7kic4M9z5p-9" value="" style="endArrow=classic;html=1;rounded=0;" parent="1" edge="1">
          <mxGeometry width="50" height="50" relative="1" as="geometry">
            <mxPoint x="819.86" y="805" as="sourcePoint" />
            <mxPoint x="949.86" y="804.5" as="targetPoint" />
          </mxGeometry>
        </mxCell>
        <mxCell id="NP07StkK-O7kic4M9z5p-20" value="5" style="edgeLabel;html=1;align=center;verticalAlign=middle;resizable=0;points=[];" parent="NP07StkK-O7kic4M9z5p-9" vertex="1" connectable="0">
          <mxGeometry x="0.4214" y="1" relative="1" as="geometry">
            <mxPoint x="-2" y="1" as="offset" />
          </mxGeometry>
        </mxCell>
        <mxCell id="NP07StkK-O7kic4M9z5p-11" value="Instr[25:21]" style="text;html=1;align=center;verticalAlign=middle;whiteSpace=wrap;rounded=0;" parent="1" vertex="1">
          <mxGeometry x="819.86" y="740" width="70" height="30" as="geometry" />
        </mxCell>
        <mxCell id="NP07StkK-O7kic4M9z5p-12" value="Instr[20:16]" style="text;html=1;align=center;verticalAlign=middle;whiteSpace=wrap;rounded=0;" parent="1" vertex="1">
          <mxGeometry x="819.86" y="780" width="70" height="30" as="geometry" />
        </mxCell>
        <mxCell id="NP07StkK-O7kic4M9z5p-48" style="edgeStyle=orthogonalEdgeStyle;rounded=0;orthogonalLoop=1;jettySize=auto;html=1;exitX=0.5;exitY=0;exitDx=0;exitDy=0;entryX=0;entryY=0.75;entryDx=0;entryDy=0;" parent="1" source="NP07StkK-O7kic4M9z5p-14" target="_0G32NAz595wTfVrgWNU-140" edge="1">
          <mxGeometry relative="1" as="geometry">
            <Array as="points">
              <mxPoint x="1330" y="783" />
              <mxPoint x="1330" y="670" />
              <mxPoint x="770" y="670" />
              <mxPoint x="770" y="880" />
              <mxPoint x="470" y="880" />
              <mxPoint x="470" y="710" />
            </Array>
          </mxGeometry>
        </mxCell>
        <mxCell id="NP07StkK-O7kic4M9z5p-49" value="32" style="edgeLabel;html=1;align=center;verticalAlign=middle;resizable=0;points=[];" parent="NP07StkK-O7kic4M9z5p-48" vertex="1" connectable="0">
          <mxGeometry x="0.6459" relative="1" as="geometry">
            <mxPoint x="65" y="-157" as="offset" />
          </mxGeometry>
        </mxCell>
        <mxCell id="NP07StkK-O7kic4M9z5p-14" value="" style="shape=trapezoid;perimeter=trapezoidPerimeter;whiteSpace=wrap;html=1;fixedSize=1;rotation=90;" parent="1" vertex="1">
          <mxGeometry x="1237.8600000000001" y="760" width="100" height="45" as="geometry" />
        </mxCell>
        <mxCell id="NP07StkK-O7kic4M9z5p-43" style="edgeStyle=orthogonalEdgeStyle;rounded=0;orthogonalLoop=1;jettySize=auto;html=1;exitX=1;exitY=0.5;exitDx=0;exitDy=0;entryX=0.75;entryY=1;entryDx=0;entryDy=0;" parent="1" source="NP07StkK-O7kic4M9z5p-21" target="NP07StkK-O7kic4M9z5p-14" edge="1">
          <mxGeometry relative="1" as="geometry" />
        </mxCell>
        <mxCell id="NP07StkK-O7kic4M9z5p-87" value="32" style="edgeLabel;html=1;align=center;verticalAlign=middle;resizable=0;points=[];" parent="NP07StkK-O7kic4M9z5p-43" vertex="1" connectable="0">
          <mxGeometry x="0.4459" y="1" relative="1" as="geometry">
            <mxPoint as="offset" />
          </mxGeometry>
        </mxCell>
        <mxCell id="NP07StkK-O7kic4M9z5p-21" value="" style="rounded=1;whiteSpace=wrap;html=1;" parent="1" vertex="1">
          <mxGeometry x="1159.8600000000001" y="900" width="50" height="90" as="geometry" />
        </mxCell>
        <mxCell id="NP07StkK-O7kic4M9z5p-23" value="ALU" style="text;html=1;align=center;verticalAlign=middle;whiteSpace=wrap;rounded=0;" parent="1" vertex="1">
          <mxGeometry x="1257.8600000000001" y="767.5" width="60" height="30" as="geometry" />
        </mxCell>
        <mxCell id="NP07StkK-O7kic4M9z5p-29" value="" style="endArrow=classic;html=1;rounded=0;exitX=1;exitY=0.5;exitDx=0;exitDy=0;" parent="1" source="NP07StkK-O7kic4M9z5p-6" edge="1">
          <mxGeometry width="50" height="50" relative="1" as="geometry">
            <mxPoint x="1089.8600000000001" y="920" as="sourcePoint" />
            <mxPoint x="1159.8600000000001" y="930" as="targetPoint" />
            <Array as="points">
              <mxPoint x="1119.8600000000001" y="835" />
              <mxPoint x="1119.8600000000001" y="930" />
            </Array>
          </mxGeometry>
        </mxCell>
        <mxCell id="_0G32NAz595wTfVrgWNU-7" value="32" style="edgeLabel;html=1;align=center;verticalAlign=middle;resizable=0;points=[];" parent="NP07StkK-O7kic4M9z5p-29" vertex="1" connectable="0">
          <mxGeometry x="0.7261" y="-1" relative="1" as="geometry">
            <mxPoint as="offset" />
          </mxGeometry>
        </mxCell>
        <mxCell id="Pv4LteulCFaErLVc3rtw-4" style="edgeStyle=orthogonalEdgeStyle;rounded=0;orthogonalLoop=1;jettySize=auto;html=1;exitX=1;exitY=0.5;exitDx=0;exitDy=0;entryX=0;entryY=0.5;entryDx=0;entryDy=0;" parent="1" source="NP07StkK-O7kic4M9z5p-35" target="Pv4LteulCFaErLVc3rtw-1" edge="1">
          <mxGeometry relative="1" as="geometry">
            <Array as="points">
              <mxPoint x="1089.8600000000001" y="975" />
              <mxPoint x="1089.8600000000001" y="595" />
            </Array>
          </mxGeometry>
        </mxCell>
        <mxCell id="Pv4LteulCFaErLVc3rtw-5" value="32" style="edgeLabel;html=1;align=center;verticalAlign=middle;resizable=0;points=[];" parent="Pv4LteulCFaErLVc3rtw-4" vertex="1" connectable="0">
          <mxGeometry x="0.7409" y="-1" relative="1" as="geometry">
            <mxPoint as="offset" />
          </mxGeometry>
        </mxCell>
        <mxCell id="Pv4LteulCFaErLVc3rtw-6" style="edgeStyle=orthogonalEdgeStyle;rounded=0;orthogonalLoop=1;jettySize=auto;html=1;exitX=1;exitY=0.5;exitDx=0;exitDy=0;entryX=0;entryY=0.25;entryDx=0;entryDy=0;" parent="1" source="NP07StkK-O7kic4M9z5p-35" target="NP07StkK-O7kic4M9z5p-54" edge="1">
          <mxGeometry relative="1" as="geometry" />
        </mxCell>
        <mxCell id="Pv4LteulCFaErLVc3rtw-8" value="32" style="edgeLabel;html=1;align=center;verticalAlign=middle;resizable=0;points=[];" parent="Pv4LteulCFaErLVc3rtw-6" vertex="1" connectable="0">
          <mxGeometry x="0.0673" relative="1" as="geometry">
            <mxPoint as="offset" />
          </mxGeometry>
        </mxCell>
        <mxCell id="NP07StkK-O7kic4M9z5p-35" value="符号扩展" style="rounded=1;whiteSpace=wrap;html=1;" parent="1" vertex="1">
          <mxGeometry x="929.86" y="960" width="80" height="30" as="geometry" />
        </mxCell>
        <mxCell id="NP07StkK-O7kic4M9z5p-40" value="" style="endArrow=classic;html=1;rounded=0;" parent="1" edge="1">
          <mxGeometry width="50" height="50" relative="1" as="geometry">
            <mxPoint x="819.86" y="975" as="sourcePoint" />
            <mxPoint x="929.86" y="974.5799999999999" as="targetPoint" />
          </mxGeometry>
        </mxCell>
        <mxCell id="NP07StkK-O7kic4M9z5p-42" value="16" style="edgeLabel;html=1;align=center;verticalAlign=middle;resizable=0;points=[];" parent="NP07StkK-O7kic4M9z5p-40" vertex="1" connectable="0">
          <mxGeometry x="0.5889" y="1" relative="1" as="geometry">
            <mxPoint x="3" y="1" as="offset" />
          </mxGeometry>
        </mxCell>
        <mxCell id="NP07StkK-O7kic4M9z5p-41" value="Instr[15:0]" style="text;html=1;align=center;verticalAlign=middle;whiteSpace=wrap;rounded=0;" parent="1" vertex="1">
          <mxGeometry x="824.86" y="950" width="60" height="30" as="geometry" />
        </mxCell>
        <mxCell id="NP07StkK-O7kic4M9z5p-44" value="写数据" style="text;html=1;align=center;verticalAlign=middle;whiteSpace=wrap;rounded=0;" parent="1" vertex="1">
          <mxGeometry x="1009.86" y="710" width="60" height="30" as="geometry" />
        </mxCell>
        <mxCell id="Pv4LteulCFaErLVc3rtw-7" style="edgeStyle=orthogonalEdgeStyle;rounded=0;orthogonalLoop=1;jettySize=auto;html=1;exitX=1;exitY=0.5;exitDx=0;exitDy=0;entryX=0;entryY=0.75;entryDx=0;entryDy=0;" parent="1" source="NP07StkK-O7kic4M9z5p-50" target="NP07StkK-O7kic4M9z5p-54" edge="1">
          <mxGeometry relative="1" as="geometry" />
        </mxCell>
        <mxCell id="Pv4LteulCFaErLVc3rtw-9" value="32" style="edgeLabel;html=1;align=center;verticalAlign=middle;resizable=0;points=[];" parent="Pv4LteulCFaErLVc3rtw-7" vertex="1" connectable="0">
          <mxGeometry x="-0.0268" y="-1" relative="1" as="geometry">
            <mxPoint as="offset" />
          </mxGeometry>
        </mxCell>
        <mxCell id="fh8E5jdkVNrsA2WqjcJn-14" style="edgeStyle=orthogonalEdgeStyle;rounded=0;orthogonalLoop=1;jettySize=auto;html=1;entryX=0;entryY=0.5;entryDx=0;entryDy=0;" parent="1" source="fh8E5jdkVNrsA2WqjcJn-13" target="NP07StkK-O7kic4M9z5p-50" edge="1">
          <mxGeometry relative="1" as="geometry">
            <Array as="points">
              <mxPoint x="889.86" y="1045" />
            </Array>
          </mxGeometry>
        </mxCell>
        <mxCell id="fh8E5jdkVNrsA2WqjcJn-15" value="16" style="edgeLabel;html=1;align=center;verticalAlign=middle;resizable=0;points=[];" parent="fh8E5jdkVNrsA2WqjcJn-14" vertex="1" connectable="0">
          <mxGeometry x="0.5576" y="-2" relative="1" as="geometry">
            <mxPoint as="offset" />
          </mxGeometry>
        </mxCell>
        <mxCell id="NP07StkK-O7kic4M9z5p-50" value="无符号扩展" style="rounded=1;whiteSpace=wrap;html=1;" parent="1" vertex="1">
          <mxGeometry x="929.86" y="1030" width="80" height="30" as="geometry" />
        </mxCell>
        <mxCell id="NP07StkK-O7kic4M9z5p-64" style="edgeStyle=orthogonalEdgeStyle;rounded=0;orthogonalLoop=1;jettySize=auto;html=1;exitX=1;exitY=0.5;exitDx=0;exitDy=0;entryX=0;entryY=0.75;entryDx=0;entryDy=0;" parent="1" source="NP07StkK-O7kic4M9z5p-54" target="NP07StkK-O7kic4M9z5p-21" edge="1">
          <mxGeometry relative="1" as="geometry" />
        </mxCell>
        <mxCell id="NP07StkK-O7kic4M9z5p-65" value="32" style="edgeLabel;html=1;align=center;verticalAlign=middle;resizable=0;points=[];" parent="NP07StkK-O7kic4M9z5p-64" vertex="1" connectable="0">
          <mxGeometry x="-0.1224" y="-4" relative="1" as="geometry">
            <mxPoint as="offset" />
          </mxGeometry>
        </mxCell>
        <mxCell id="NP07StkK-O7kic4M9z5p-54" value="" style="rounded=1;whiteSpace=wrap;html=1;" parent="1" vertex="1">
          <mxGeometry x="1059.8600000000001" y="1010" width="50" height="90" as="geometry" />
        </mxCell>
        <mxCell id="NP07StkK-O7kic4M9z5p-57" value="MUX2" style="text;html=1;align=center;verticalAlign=middle;whiteSpace=wrap;rounded=0;" parent="1" vertex="1">
          <mxGeometry x="1054.8600000000001" y="1010" width="60" height="30" as="geometry" />
        </mxCell>
        <mxCell id="_0G32NAz595wTfVrgWNU-216" style="edgeStyle=orthogonalEdgeStyle;rounded=0;orthogonalLoop=1;jettySize=auto;html=1;entryX=0.75;entryY=1;entryDx=0;entryDy=0;" parent="1" source="NP07StkK-O7kic4M9z5p-90" target="NP07StkK-O7kic4M9z5p-1" edge="1">
          <mxGeometry relative="1" as="geometry" />
        </mxCell>
        <mxCell id="NP07StkK-O7kic4M9z5p-90" value="RegWr" style="text;html=1;align=center;verticalAlign=middle;whiteSpace=wrap;rounded=0;" parent="1" vertex="1">
          <mxGeometry x="1009.86" y="915" width="60" height="30" as="geometry" />
        </mxCell>
        <mxCell id="Pv4LteulCFaErLVc3rtw-79" style="edgeStyle=orthogonalEdgeStyle;rounded=0;orthogonalLoop=1;jettySize=auto;html=1;entryX=0;entryY=0.75;entryDx=0;entryDy=0;" parent="1" target="NP07StkK-O7kic4M9z5p-110" edge="1">
          <mxGeometry relative="1" as="geometry">
            <mxPoint x="1330" y="690" as="sourcePoint" />
            <Array as="points">
              <mxPoint x="1330" y="670" />
              <mxPoint x="1646" y="670" />
              <mxPoint x="1646" y="850" />
            </Array>
          </mxGeometry>
        </mxCell>
        <mxCell id="_0G32NAz595wTfVrgWNU-60" value="32" style="edgeLabel;html=1;align=center;verticalAlign=middle;resizable=0;points=[];" parent="Pv4LteulCFaErLVc3rtw-79" vertex="1" connectable="0">
          <mxGeometry x="0.8808" y="1" relative="1" as="geometry">
            <mxPoint as="offset" />
          </mxGeometry>
        </mxCell>
        <mxCell id="NP07StkK-O7kic4M9z5p-110" value="" style="rounded=0;whiteSpace=wrap;html=1;" parent="1" vertex="1">
          <mxGeometry x="1959.8600000000001" y="790" width="190" height="80" as="geometry" />
        </mxCell>
        <mxCell id="NP07StkK-O7kic4M9z5p-111" value="数据存储器" style="text;html=1;align=center;verticalAlign=middle;whiteSpace=wrap;rounded=0;" parent="1" vertex="1">
          <mxGeometry x="2029.8600000000001" y="840" width="70" height="30" as="geometry" />
        </mxCell>
        <mxCell id="NP07StkK-O7kic4M9z5p-113" value="地址" style="text;html=1;align=center;verticalAlign=middle;whiteSpace=wrap;rounded=0;" parent="1" vertex="1">
          <mxGeometry x="1949.8600000000001" y="832.5" width="60" height="30" as="geometry" />
        </mxCell>
        <mxCell id="NP07StkK-O7kic4M9z5p-121" style="edgeStyle=orthogonalEdgeStyle;rounded=0;orthogonalLoop=1;jettySize=auto;html=1;exitX=1;exitY=0.5;exitDx=0;exitDy=0;entryX=0;entryY=0.5;entryDx=0;entryDy=0;" parent="1" source="NP07StkK-O7kic4M9z5p-116" target="NP07StkK-O7kic4M9z5p-120" edge="1">
          <mxGeometry relative="1" as="geometry">
            <Array as="points">
              <mxPoint x="819.86" y="1070" />
              <mxPoint x="819.86" y="595" />
            </Array>
          </mxGeometry>
        </mxCell>
        <mxCell id="NP07StkK-O7kic4M9z5p-124" value="26" style="edgeLabel;html=1;align=center;verticalAlign=middle;resizable=0;points=[];" parent="NP07StkK-O7kic4M9z5p-121" vertex="1" connectable="0">
          <mxGeometry x="0.8889" y="-1" relative="1" as="geometry">
            <mxPoint as="offset" />
          </mxGeometry>
        </mxCell>
        <mxCell id="NP07StkK-O7kic4M9z5p-116" value="" style="rounded=0;whiteSpace=wrap;html=1;" parent="1" vertex="1">
          <mxGeometry x="570" y="1030" width="149.86" height="80" as="geometry" />
        </mxCell>
        <mxCell id="NP07StkK-O7kic4M9z5p-117" value="指令存储器" style="text;html=1;align=center;verticalAlign=middle;whiteSpace=wrap;rounded=0;" parent="1" vertex="1">
          <mxGeometry x="609.9300000000001" y="1080" width="70" height="30" as="geometry" />
        </mxCell>
        <mxCell id="_0G32NAz595wTfVrgWNU-132" style="edgeStyle=orthogonalEdgeStyle;rounded=0;orthogonalLoop=1;jettySize=auto;html=1;exitX=1;exitY=0.5;exitDx=0;exitDy=0;entryX=0;entryY=0.5;entryDx=0;entryDy=0;" parent="1" source="NP07StkK-O7kic4M9z5p-118" target="NP07StkK-O7kic4M9z5p-116" edge="1">
          <mxGeometry relative="1" as="geometry">
            <Array as="points">
              <mxPoint x="390" y="530" />
              <mxPoint x="390" y="1070" />
            </Array>
          </mxGeometry>
        </mxCell>
        <mxCell id="_0G32NAz595wTfVrgWNU-136" style="edgeStyle=orthogonalEdgeStyle;rounded=0;orthogonalLoop=1;jettySize=auto;html=1;exitX=1;exitY=0.5;exitDx=0;exitDy=0;entryX=0.75;entryY=1;entryDx=0;entryDy=0;" parent="1" source="NP07StkK-O7kic4M9z5p-118" target="NP07StkK-O7kic4M9z5p-128" edge="1">
          <mxGeometry relative="1" as="geometry" />
        </mxCell>
        <mxCell id="_0G32NAz595wTfVrgWNU-137" value="32" style="edgeLabel;html=1;align=center;verticalAlign=middle;resizable=0;points=[];" parent="_0G32NAz595wTfVrgWNU-136" vertex="1" connectable="0">
          <mxGeometry x="0.6812" y="-2" relative="1" as="geometry">
            <mxPoint as="offset" />
          </mxGeometry>
        </mxCell>
        <mxCell id="NP07StkK-O7kic4M9z5p-118" value="PC" style="shape=process;whiteSpace=wrap;html=1;backgroundOutline=1;rotation=0;" parent="1" vertex="1">
          <mxGeometry x="303" y="485" width="60" height="90" as="geometry" />
        </mxCell>
        <mxCell id="NP07StkK-O7kic4M9z5p-119" value="指令" style="text;html=1;align=center;verticalAlign=middle;whiteSpace=wrap;rounded=0;" parent="1" vertex="1">
          <mxGeometry x="669.86" y="1055" width="60" height="30" as="geometry" />
        </mxCell>
        <mxCell id="NP07StkK-O7kic4M9z5p-127" style="edgeStyle=orthogonalEdgeStyle;rounded=0;orthogonalLoop=1;jettySize=auto;html=1;exitX=1;exitY=0.5;exitDx=0;exitDy=0;entryX=0.5;entryY=1;entryDx=0;entryDy=0;" parent="1" source="NP07StkK-O7kic4M9z5p-120" target="NP07StkK-O7kic4M9z5p-125" edge="1">
          <mxGeometry relative="1" as="geometry" />
        </mxCell>
        <mxCell id="NP07StkK-O7kic4M9z5p-144" value="28" style="edgeLabel;html=1;align=center;verticalAlign=middle;resizable=0;points=[];" parent="NP07StkK-O7kic4M9z5p-127" vertex="1" connectable="0">
          <mxGeometry x="-0.353" y="2" relative="1" as="geometry">
            <mxPoint as="offset" />
          </mxGeometry>
        </mxCell>
        <mxCell id="NP07StkK-O7kic4M9z5p-120" value="左移两位" style="rounded=1;whiteSpace=wrap;html=1;" parent="1" vertex="1">
          <mxGeometry x="944.86" y="580" width="80" height="30" as="geometry" />
        </mxCell>
        <mxCell id="NP07StkK-O7kic4M9z5p-122" value="Instr[31:0]" style="text;html=1;align=center;verticalAlign=middle;whiteSpace=wrap;rounded=0;" parent="1" vertex="1">
          <mxGeometry x="729.86" y="1040" width="60" height="30" as="geometry" />
        </mxCell>
        <mxCell id="NP07StkK-O7kic4M9z5p-123" value="Instr[25:0]" style="text;html=1;align=center;verticalAlign=middle;whiteSpace=wrap;rounded=0;" parent="1" vertex="1">
          <mxGeometry x="754.86" y="613" width="70" height="30" as="geometry" />
        </mxCell>
        <mxCell id="Pv4LteulCFaErLVc3rtw-22" style="edgeStyle=orthogonalEdgeStyle;rounded=0;orthogonalLoop=1;jettySize=auto;html=1;exitX=0.5;exitY=0;exitDx=0;exitDy=0;entryX=1;entryY=0.75;entryDx=0;entryDy=0;" parent="1" source="NP07StkK-O7kic4M9z5p-125" target="Pv4LteulCFaErLVc3rtw-20" edge="1">
          <mxGeometry relative="1" as="geometry" />
        </mxCell>
        <mxCell id="Pv4LteulCFaErLVc3rtw-52" value="32" style="edgeLabel;html=1;align=center;verticalAlign=middle;resizable=0;points=[];" parent="Pv4LteulCFaErLVc3rtw-22" vertex="1" connectable="0">
          <mxGeometry x="0.4475" y="2" relative="1" as="geometry">
            <mxPoint as="offset" />
          </mxGeometry>
        </mxCell>
        <mxCell id="NP07StkK-O7kic4M9z5p-125" value="位拼接" style="ellipse;whiteSpace=wrap;html=1;" parent="1" vertex="1">
          <mxGeometry x="1034.8600000000001" y="510" width="80" height="60" as="geometry" />
        </mxCell>
        <mxCell id="NP07StkK-O7kic4M9z5p-141" style="edgeStyle=orthogonalEdgeStyle;rounded=0;orthogonalLoop=1;jettySize=auto;html=1;exitX=0.5;exitY=0;exitDx=0;exitDy=0;entryX=0;entryY=0.5;entryDx=0;entryDy=0;" parent="1" source="NP07StkK-O7kic4M9z5p-128" target="NP07StkK-O7kic4M9z5p-125" edge="1">
          <mxGeometry relative="1" as="geometry" />
        </mxCell>
        <mxCell id="NP07StkK-O7kic4M9z5p-142" value="4" style="edgeLabel;html=1;align=center;verticalAlign=middle;resizable=0;points=[];" parent="NP07StkK-O7kic4M9z5p-141" vertex="1" connectable="0">
          <mxGeometry x="0.6391" y="2" relative="1" as="geometry">
            <mxPoint as="offset" />
          </mxGeometry>
        </mxCell>
        <mxCell id="NP07StkK-O7kic4M9z5p-143" value="高四位" style="edgeLabel;html=1;align=center;verticalAlign=middle;resizable=0;points=[];" parent="NP07StkK-O7kic4M9z5p-141" vertex="1" connectable="0">
          <mxGeometry x="-0.5411" y="1" relative="1" as="geometry">
            <mxPoint x="12" y="24" as="offset" />
          </mxGeometry>
        </mxCell>
        <mxCell id="Pv4LteulCFaErLVc3rtw-13" style="edgeStyle=orthogonalEdgeStyle;rounded=0;orthogonalLoop=1;jettySize=auto;html=1;exitX=0.5;exitY=0;exitDx=0;exitDy=0;entryX=0.25;entryY=1;entryDx=0;entryDy=0;" parent="1" source="NP07StkK-O7kic4M9z5p-128" target="Pv4LteulCFaErLVc3rtw-10" edge="1">
          <mxGeometry relative="1" as="geometry" />
        </mxCell>
        <mxCell id="Pv4LteulCFaErLVc3rtw-49" style="edgeStyle=orthogonalEdgeStyle;rounded=0;orthogonalLoop=1;jettySize=auto;html=1;exitX=0.5;exitY=0;exitDx=0;exitDy=0;entryX=0;entryY=0.5;entryDx=0;entryDy=0;" parent="1" source="NP07StkK-O7kic4M9z5p-128" target="_0G32NAz595wTfVrgWNU-140" edge="1">
          <mxGeometry relative="1" as="geometry">
            <mxPoint x="520" y="870" as="targetPoint" />
            <Array as="points">
              <mxPoint x="960" y="487" />
              <mxPoint x="960" y="560" />
              <mxPoint x="450" y="560" />
              <mxPoint x="450" y="688" />
            </Array>
          </mxGeometry>
        </mxCell>
        <mxCell id="Pv4LteulCFaErLVc3rtw-51" value="32" style="edgeLabel;html=1;align=center;verticalAlign=middle;resizable=0;points=[];" parent="Pv4LteulCFaErLVc3rtw-49" vertex="1" connectable="0">
          <mxGeometry x="0.7776" relative="1" as="geometry">
            <mxPoint x="48" as="offset" />
          </mxGeometry>
        </mxCell>
        <mxCell id="NP07StkK-O7kic4M9z5p-128" value="" style="shape=trapezoid;perimeter=trapezoidPerimeter;whiteSpace=wrap;html=1;fixedSize=1;rotation=90;" parent="1" vertex="1">
          <mxGeometry x="879.86" y="465" width="85" height="45" as="geometry" />
        </mxCell>
        <mxCell id="NP07StkK-O7kic4M9z5p-129" value="add" style="text;html=1;align=center;verticalAlign=middle;whiteSpace=wrap;rounded=0;" parent="1" vertex="1">
          <mxGeometry x="892.36" y="472.5" width="60" height="30" as="geometry" />
        </mxCell>
        <mxCell id="NP07StkK-O7kic4M9z5p-135" value="4" style="text;html=1;align=center;verticalAlign=middle;whiteSpace=wrap;rounded=0;" parent="1" vertex="1">
          <mxGeometry x="774.86" y="442.5" width="60" height="30" as="geometry" />
        </mxCell>
        <mxCell id="NP07StkK-O7kic4M9z5p-137" value="" style="endArrow=classic;html=1;rounded=0;" parent="1" edge="1">
          <mxGeometry width="50" height="50" relative="1" as="geometry">
            <mxPoint x="789.86" y="465" as="sourcePoint" />
            <mxPoint x="899.86" y="465" as="targetPoint" />
          </mxGeometry>
        </mxCell>
        <mxCell id="Pv4LteulCFaErLVc3rtw-12" style="edgeStyle=orthogonalEdgeStyle;rounded=0;orthogonalLoop=1;jettySize=auto;html=1;exitX=1;exitY=0.5;exitDx=0;exitDy=0;entryX=0.75;entryY=1;entryDx=0;entryDy=0;" parent="1" source="Pv4LteulCFaErLVc3rtw-1" target="Pv4LteulCFaErLVc3rtw-10" edge="1">
          <mxGeometry relative="1" as="geometry" />
        </mxCell>
        <mxCell id="Pv4LteulCFaErLVc3rtw-15" value="32" style="edgeLabel;html=1;align=center;verticalAlign=middle;resizable=0;points=[];" parent="Pv4LteulCFaErLVc3rtw-12" vertex="1" connectable="0">
          <mxGeometry x="0.1855" relative="1" as="geometry">
            <mxPoint as="offset" />
          </mxGeometry>
        </mxCell>
        <mxCell id="Pv4LteulCFaErLVc3rtw-1" value="左移两位" style="rounded=1;whiteSpace=wrap;html=1;" parent="1" vertex="1">
          <mxGeometry x="1179.8600000000001" y="580" width="80" height="30" as="geometry" />
        </mxCell>
        <mxCell id="Pv4LteulCFaErLVc3rtw-17" style="edgeStyle=orthogonalEdgeStyle;rounded=0;orthogonalLoop=1;jettySize=auto;html=1;exitX=0.25;exitY=1;exitDx=0;exitDy=0;entryX=1;entryY=0.75;entryDx=0;entryDy=0;" parent="1" source="Pv4LteulCFaErLVc3rtw-10" target="Pv4LteulCFaErLVc3rtw-16" edge="1">
          <mxGeometry relative="1" as="geometry" />
        </mxCell>
        <mxCell id="Pv4LteulCFaErLVc3rtw-18" value="32" style="edgeLabel;html=1;align=center;verticalAlign=middle;resizable=0;points=[];" parent="Pv4LteulCFaErLVc3rtw-17" vertex="1" connectable="0">
          <mxGeometry x="0.0225" y="-1" relative="1" as="geometry">
            <mxPoint as="offset" />
          </mxGeometry>
        </mxCell>
        <mxCell id="Pv4LteulCFaErLVc3rtw-21" value="32" style="edgeLabel;html=1;align=center;verticalAlign=middle;resizable=0;points=[];" parent="Pv4LteulCFaErLVc3rtw-17" vertex="1" connectable="0">
          <mxGeometry x="-0.7786" y="-2" relative="1" as="geometry">
            <mxPoint as="offset" />
          </mxGeometry>
        </mxCell>
        <mxCell id="Pv4LteulCFaErLVc3rtw-19" style="edgeStyle=orthogonalEdgeStyle;rounded=0;orthogonalLoop=1;jettySize=auto;html=1;exitX=0.5;exitY=0;exitDx=0;exitDy=0;entryX=1;entryY=0.25;entryDx=0;entryDy=0;" parent="1" source="Pv4LteulCFaErLVc3rtw-10" target="Pv4LteulCFaErLVc3rtw-16" edge="1">
          <mxGeometry relative="1" as="geometry" />
        </mxCell>
        <mxCell id="Pv4LteulCFaErLVc3rtw-25" value="32" style="edgeLabel;html=1;align=center;verticalAlign=middle;resizable=0;points=[];" parent="Pv4LteulCFaErLVc3rtw-19" vertex="1" connectable="0">
          <mxGeometry x="0.8144" relative="1" as="geometry">
            <mxPoint as="offset" />
          </mxGeometry>
        </mxCell>
        <mxCell id="Pv4LteulCFaErLVc3rtw-10" value="" style="shape=trapezoid;perimeter=trapezoidPerimeter;whiteSpace=wrap;html=1;fixedSize=1;rotation=90;" parent="1" vertex="1">
          <mxGeometry x="1299.8600000000001" y="472.5" width="85" height="45" as="geometry" />
        </mxCell>
        <mxCell id="Pv4LteulCFaErLVc3rtw-11" value="add" style="text;html=1;align=center;verticalAlign=middle;whiteSpace=wrap;rounded=0;" parent="1" vertex="1">
          <mxGeometry x="1312.3600000000001" y="480" width="60" height="30" as="geometry" />
        </mxCell>
        <mxCell id="Pv4LteulCFaErLVc3rtw-23" style="edgeStyle=orthogonalEdgeStyle;rounded=0;orthogonalLoop=1;jettySize=auto;html=1;exitX=0;exitY=0.5;exitDx=0;exitDy=0;entryX=1;entryY=0.25;entryDx=0;entryDy=0;" parent="1" source="Pv4LteulCFaErLVc3rtw-16" target="Pv4LteulCFaErLVc3rtw-20" edge="1">
          <mxGeometry relative="1" as="geometry">
            <Array as="points">
              <mxPoint x="1179.8600000000001" y="323" />
              <mxPoint x="1101.8600000000001" y="323" />
            </Array>
          </mxGeometry>
        </mxCell>
        <mxCell id="Pv4LteulCFaErLVc3rtw-53" value="32" style="edgeLabel;html=1;align=center;verticalAlign=middle;resizable=0;points=[];" parent="Pv4LteulCFaErLVc3rtw-23" vertex="1" connectable="0">
          <mxGeometry x="0.5823" relative="1" as="geometry">
            <mxPoint as="offset" />
          </mxGeometry>
        </mxCell>
        <mxCell id="Pv4LteulCFaErLVc3rtw-16" value="" style="rounded=1;whiteSpace=wrap;html=1;" parent="1" vertex="1">
          <mxGeometry x="1179.8600000000001" y="300" width="50" height="90" as="geometry" />
        </mxCell>
        <mxCell id="Pv4LteulCFaErLVc3rtw-26" style="edgeStyle=orthogonalEdgeStyle;rounded=0;orthogonalLoop=1;jettySize=auto;html=1;exitX=0;exitY=0.25;exitDx=0;exitDy=0;entryX=1;entryY=0.25;entryDx=0;entryDy=0;" parent="1" source="Pv4LteulCFaErLVc3rtw-20" target="Pv4LteulCFaErLVc3rtw-24" edge="1">
          <mxGeometry relative="1" as="geometry" />
        </mxCell>
        <mxCell id="Pv4LteulCFaErLVc3rtw-54" value="32" style="edgeLabel;html=1;align=center;verticalAlign=middle;resizable=0;points=[];" parent="Pv4LteulCFaErLVc3rtw-26" vertex="1" connectable="0">
          <mxGeometry x="0.4833" relative="1" as="geometry">
            <mxPoint as="offset" />
          </mxGeometry>
        </mxCell>
        <mxCell id="Pv4LteulCFaErLVc3rtw-20" value="" style="rounded=1;whiteSpace=wrap;html=1;" parent="1" vertex="1">
          <mxGeometry x="999.86" y="300" width="50" height="90" as="geometry" />
        </mxCell>
        <mxCell id="_0G32NAz595wTfVrgWNU-135" style="edgeStyle=orthogonalEdgeStyle;rounded=0;orthogonalLoop=1;jettySize=auto;html=1;exitX=0;exitY=0.25;exitDx=0;exitDy=0;entryX=0;entryY=0.5;entryDx=0;entryDy=0;" parent="1" source="Pv4LteulCFaErLVc3rtw-24" target="NP07StkK-O7kic4M9z5p-118" edge="1">
          <mxGeometry relative="1" as="geometry">
            <Array as="points">
              <mxPoint x="240" y="323" />
              <mxPoint x="240" y="530" />
            </Array>
          </mxGeometry>
        </mxCell>
        <mxCell id="Pv4LteulCFaErLVc3rtw-24" value="" style="rounded=1;whiteSpace=wrap;html=1;" parent="1" vertex="1">
          <mxGeometry x="734.86" y="300" width="50" height="90" as="geometry" />
        </mxCell>
        <mxCell id="Pv4LteulCFaErLVc3rtw-46" style="edgeStyle=orthogonalEdgeStyle;rounded=0;orthogonalLoop=1;jettySize=auto;html=1;exitX=1;exitY=0.5;exitDx=0;exitDy=0;" parent="1" source="Pv4LteulCFaErLVc3rtw-38" target="NP07StkK-O7kic4M9z5p-7" edge="1">
          <mxGeometry relative="1" as="geometry" />
        </mxCell>
        <mxCell id="Pv4LteulCFaErLVc3rtw-48" style="edgeStyle=orthogonalEdgeStyle;rounded=0;orthogonalLoop=1;jettySize=auto;html=1;entryX=0.096;entryY=0.825;entryDx=0;entryDy=0;entryPerimeter=0;" parent="1" target="Pv4LteulCFaErLVc3rtw-38" edge="1">
          <mxGeometry relative="1" as="geometry">
            <mxPoint x="840" y="910" as="sourcePoint" />
            <mxPoint x="789.8600000000001" y="900" as="targetPoint" />
          </mxGeometry>
        </mxCell>
        <mxCell id="_0G32NAz595wTfVrgWNU-139" value="5" style="edgeLabel;html=1;align=center;verticalAlign=middle;resizable=0;points=[];" parent="Pv4LteulCFaErLVc3rtw-48" vertex="1" connectable="0">
          <mxGeometry x="0.2493" y="4" relative="1" as="geometry">
            <mxPoint x="6" y="3" as="offset" />
          </mxGeometry>
        </mxCell>
        <mxCell id="Pv4LteulCFaErLVc3rtw-38" value="" style="rounded=1;whiteSpace=wrap;html=1;" parent="1" vertex="1">
          <mxGeometry x="884.86" y="843.75" width="30" height="67.5" as="geometry" />
        </mxCell>
        <mxCell id="Pv4LteulCFaErLVc3rtw-45" value="Instr[15:11]" style="text;html=1;align=center;verticalAlign=middle;whiteSpace=wrap;rounded=0;" parent="1" vertex="1">
          <mxGeometry x="819.86" y="911.25" width="70" height="30" as="geometry" />
        </mxCell>
        <mxCell id="Pv4LteulCFaErLVc3rtw-47" value="31" style="text;html=1;align=center;verticalAlign=middle;whiteSpace=wrap;rounded=0;" parent="1" vertex="1">
          <mxGeometry x="809.86" y="885" width="60" height="30" as="geometry" />
        </mxCell>
        <mxCell id="_0G32NAz595wTfVrgWNU-129" style="edgeStyle=orthogonalEdgeStyle;rounded=0;orthogonalLoop=1;jettySize=auto;html=1;exitX=0.5;exitY=0;exitDx=0;exitDy=0;entryX=1;entryY=0;entryDx=0;entryDy=0;" parent="1" source="Pv4LteulCFaErLVc3rtw-55" target="Pv4LteulCFaErLVc3rtw-63" edge="1">
          <mxGeometry relative="1" as="geometry">
            <mxPoint x="2119.454545454545" y="410" as="targetPoint" />
          </mxGeometry>
        </mxCell>
        <mxCell id="_0G32NAz595wTfVrgWNU-130" value="32" style="edgeLabel;html=1;align=center;verticalAlign=middle;resizable=0;points=[];" parent="_0G32NAz595wTfVrgWNU-129" vertex="1" connectable="0">
          <mxGeometry x="0.896" y="-1" relative="1" as="geometry">
            <mxPoint as="offset" />
          </mxGeometry>
        </mxCell>
        <mxCell id="Pv4LteulCFaErLVc3rtw-55" value="读数据" style="text;html=1;align=center;verticalAlign=middle;whiteSpace=wrap;rounded=0;" parent="1" vertex="1">
          <mxGeometry x="2089.8599999999997" y="790" width="60" height="30" as="geometry" />
        </mxCell>
        <mxCell id="Pv4LteulCFaErLVc3rtw-83" style="edgeStyle=orthogonalEdgeStyle;rounded=0;orthogonalLoop=1;jettySize=auto;html=1;exitX=0;exitY=0.25;exitDx=0;exitDy=0;entryX=1;entryY=0.5;entryDx=0;entryDy=0;" parent="1" source="Pv4LteulCFaErLVc3rtw-56" target="Pv4LteulCFaErLVc3rtw-74" edge="1">
          <mxGeometry relative="1" as="geometry" />
        </mxCell>
        <mxCell id="Pv4LteulCFaErLVc3rtw-88" value="16" style="edgeLabel;html=1;align=center;verticalAlign=middle;resizable=0;points=[];" parent="Pv4LteulCFaErLVc3rtw-83" vertex="1" connectable="0">
          <mxGeometry x="0.6198" relative="1" as="geometry">
            <mxPoint as="offset" />
          </mxGeometry>
        </mxCell>
        <mxCell id="Pv4LteulCFaErLVc3rtw-84" style="edgeStyle=orthogonalEdgeStyle;rounded=0;orthogonalLoop=1;jettySize=auto;html=1;exitX=0;exitY=0.25;exitDx=0;exitDy=0;entryX=1;entryY=0.5;entryDx=0;entryDy=0;" parent="1" source="Pv4LteulCFaErLVc3rtw-56" target="Pv4LteulCFaErLVc3rtw-75" edge="1">
          <mxGeometry relative="1" as="geometry" />
        </mxCell>
        <mxCell id="Pv4LteulCFaErLVc3rtw-87" value="16" style="edgeLabel;html=1;align=center;verticalAlign=middle;resizable=0;points=[];" parent="Pv4LteulCFaErLVc3rtw-84" vertex="1" connectable="0">
          <mxGeometry x="-0.7676" y="2" relative="1" as="geometry">
            <mxPoint x="-23" as="offset" />
          </mxGeometry>
        </mxCell>
        <mxCell id="Pv4LteulCFaErLVc3rtw-89" value="16" style="edgeLabel;html=1;align=center;verticalAlign=middle;resizable=0;points=[];" parent="Pv4LteulCFaErLVc3rtw-84" vertex="1" connectable="0">
          <mxGeometry x="0.6776" y="-1" relative="1" as="geometry">
            <mxPoint as="offset" />
          </mxGeometry>
        </mxCell>
        <mxCell id="Pv4LteulCFaErLVc3rtw-93" style="edgeStyle=orthogonalEdgeStyle;rounded=0;orthogonalLoop=1;jettySize=auto;html=1;exitX=0;exitY=0.25;exitDx=0;exitDy=0;entryX=1;entryY=0.75;entryDx=0;entryDy=0;" parent="1" source="Pv4LteulCFaErLVc3rtw-56" target="Pv4LteulCFaErLVc3rtw-76" edge="1">
          <mxGeometry relative="1" as="geometry">
            <Array as="points">
              <mxPoint x="1919.8600000000001" y="567.5" />
              <mxPoint x="1919.8600000000001" y="495.5" />
              <mxPoint x="2039.8600000000001" y="495.5" />
              <mxPoint x="2039.8600000000001" y="422.5" />
            </Array>
          </mxGeometry>
        </mxCell>
        <mxCell id="Pv4LteulCFaErLVc3rtw-97" value="8" style="edgeLabel;html=1;align=center;verticalAlign=middle;resizable=0;points=[];" parent="Pv4LteulCFaErLVc3rtw-93" vertex="1" connectable="0">
          <mxGeometry x="0.8326" y="-1" relative="1" as="geometry">
            <mxPoint as="offset" />
          </mxGeometry>
        </mxCell>
        <mxCell id="Pv4LteulCFaErLVc3rtw-94" style="edgeStyle=orthogonalEdgeStyle;rounded=0;orthogonalLoop=1;jettySize=auto;html=1;exitX=0;exitY=0.25;exitDx=0;exitDy=0;entryX=1;entryY=0.25;entryDx=0;entryDy=0;" parent="1" source="Pv4LteulCFaErLVc3rtw-56" target="Pv4LteulCFaErLVc3rtw-76" edge="1">
          <mxGeometry relative="1" as="geometry">
            <Array as="points">
              <mxPoint x="1919.8600000000001" y="567.5" />
              <mxPoint x="1919.8600000000001" y="495.5" />
              <mxPoint x="2039.8600000000001" y="495.5" />
              <mxPoint x="2039.8600000000001" y="372.5" />
            </Array>
          </mxGeometry>
        </mxCell>
        <mxCell id="Pv4LteulCFaErLVc3rtw-95" value="16" style="edgeLabel;html=1;align=center;verticalAlign=middle;resizable=0;points=[];" parent="Pv4LteulCFaErLVc3rtw-94" vertex="1" connectable="0">
          <mxGeometry x="-0.27" y="1" relative="1" as="geometry">
            <mxPoint as="offset" />
          </mxGeometry>
        </mxCell>
        <mxCell id="Pv4LteulCFaErLVc3rtw-96" value="8" style="edgeLabel;html=1;align=center;verticalAlign=middle;resizable=0;points=[];" parent="Pv4LteulCFaErLVc3rtw-94" vertex="1" connectable="0">
          <mxGeometry x="0.8643" y="-2" relative="1" as="geometry">
            <mxPoint as="offset" />
          </mxGeometry>
        </mxCell>
        <mxCell id="Pv4LteulCFaErLVc3rtw-56" value="" style="rounded=1;whiteSpace=wrap;html=1;" parent="1" vertex="1">
          <mxGeometry x="1939.8600000000001" y="542.5" width="50" height="100" as="geometry" />
        </mxCell>
        <mxCell id="_0G32NAz595wTfVrgWNU-142" style="edgeStyle=orthogonalEdgeStyle;rounded=0;orthogonalLoop=1;jettySize=auto;html=1;exitX=0;exitY=0.5;exitDx=0;exitDy=0;entryX=0;entryY=0.25;entryDx=0;entryDy=0;" parent="1" source="Pv4LteulCFaErLVc3rtw-63" target="_0G32NAz595wTfVrgWNU-140" edge="1">
          <mxGeometry relative="1" as="geometry">
            <Array as="points">
              <mxPoint x="1480" y="367" />
              <mxPoint x="1480" y="270" />
              <mxPoint x="560" y="270" />
              <mxPoint x="560" y="665" />
            </Array>
          </mxGeometry>
        </mxCell>
        <mxCell id="_0G32NAz595wTfVrgWNU-143" value="32" style="edgeLabel;html=1;align=center;verticalAlign=middle;resizable=0;points=[];" parent="_0G32NAz595wTfVrgWNU-142" vertex="1" connectable="0">
          <mxGeometry x="0.9219" relative="1" as="geometry">
            <mxPoint as="offset" />
          </mxGeometry>
        </mxCell>
        <mxCell id="Pv4LteulCFaErLVc3rtw-63" value="" style="rounded=1;whiteSpace=wrap;html=1;" parent="1" vertex="1">
          <mxGeometry x="1499.8600000000001" y="322.5" width="50" height="90" as="geometry" />
        </mxCell>
        <mxCell id="Pv4LteulCFaErLVc3rtw-68" value="" style="endArrow=classic;html=1;rounded=0;" parent="1" edge="1">
          <mxGeometry width="50" height="50" relative="1" as="geometry">
            <mxPoint x="2119.86" y="571.3900000000001" as="sourcePoint" />
            <mxPoint x="1989.8600000000001" y="571.3900000000001" as="targetPoint" />
          </mxGeometry>
        </mxCell>
        <mxCell id="Pv4LteulCFaErLVc3rtw-85" value="16" style="edgeLabel;html=1;align=center;verticalAlign=middle;resizable=0;points=[];" parent="Pv4LteulCFaErLVc3rtw-68" vertex="1" connectable="0">
          <mxGeometry x="0.5687" y="-2" relative="1" as="geometry">
            <mxPoint as="offset" />
          </mxGeometry>
        </mxCell>
        <mxCell id="Pv4LteulCFaErLVc3rtw-69" value="" style="endArrow=classic;html=1;rounded=0;" parent="1" edge="1">
          <mxGeometry width="50" height="50" relative="1" as="geometry">
            <mxPoint x="2119.86" y="622.5" as="sourcePoint" />
            <mxPoint x="1989.8600000000001" y="622.5" as="targetPoint" />
          </mxGeometry>
        </mxCell>
        <mxCell id="Pv4LteulCFaErLVc3rtw-86" value="16" style="edgeLabel;html=1;align=center;verticalAlign=middle;resizable=0;points=[];" parent="Pv4LteulCFaErLVc3rtw-69" vertex="1" connectable="0">
          <mxGeometry x="0.5394" y="1" relative="1" as="geometry">
            <mxPoint as="offset" />
          </mxGeometry>
        </mxCell>
        <mxCell id="Pv4LteulCFaErLVc3rtw-70" value="Data[31:16]" style="text;html=1;align=center;verticalAlign=middle;whiteSpace=wrap;rounded=0;" parent="1" vertex="1">
          <mxGeometry x="2044.8600000000001" y="542.5" width="60" height="30" as="geometry" />
        </mxCell>
        <mxCell id="Pv4LteulCFaErLVc3rtw-71" value="Data[15:0]" style="text;html=1;align=center;verticalAlign=middle;whiteSpace=wrap;rounded=0;" parent="1" vertex="1">
          <mxGeometry x="2044.8600000000001" y="592.5" width="60" height="30" as="geometry" />
        </mxCell>
        <mxCell id="Pv4LteulCFaErLVc3rtw-106" style="edgeStyle=orthogonalEdgeStyle;rounded=0;orthogonalLoop=1;jettySize=auto;html=1;exitX=0;exitY=0.5;exitDx=0;exitDy=0;entryX=1;entryY=0.75;entryDx=0;entryDy=0;" parent="1" source="Pv4LteulCFaErLVc3rtw-74" target="Pv4LteulCFaErLVc3rtw-63" edge="1">
          <mxGeometry relative="1" as="geometry">
            <Array as="points">
              <mxPoint x="1569.8600000000001" y="567" />
              <mxPoint x="1569.8600000000001" y="390" />
            </Array>
          </mxGeometry>
        </mxCell>
        <mxCell id="Pv4LteulCFaErLVc3rtw-111" value="32" style="edgeLabel;html=1;align=center;verticalAlign=middle;resizable=0;points=[];" parent="Pv4LteulCFaErLVc3rtw-106" vertex="1" connectable="0">
          <mxGeometry x="0.389" y="-2" relative="1" as="geometry">
            <mxPoint as="offset" />
          </mxGeometry>
        </mxCell>
        <mxCell id="Pv4LteulCFaErLVc3rtw-74" value="符号扩展" style="rounded=1;whiteSpace=wrap;html=1;" parent="1" vertex="1">
          <mxGeometry x="1679.8600000000001" y="552.5" width="80" height="30" as="geometry" />
        </mxCell>
        <mxCell id="Pv4LteulCFaErLVc3rtw-107" style="edgeStyle=orthogonalEdgeStyle;rounded=0;orthogonalLoop=1;jettySize=auto;html=1;exitX=0;exitY=0.5;exitDx=0;exitDy=0;entryX=1;entryY=1;entryDx=0;entryDy=0;" parent="1" source="Pv4LteulCFaErLVc3rtw-75" target="Pv4LteulCFaErLVc3rtw-63" edge="1">
          <mxGeometry relative="1" as="geometry" />
        </mxCell>
        <mxCell id="Pv4LteulCFaErLVc3rtw-112" value="32" style="edgeLabel;html=1;align=center;verticalAlign=middle;resizable=0;points=[];" parent="Pv4LteulCFaErLVc3rtw-107" vertex="1" connectable="0">
          <mxGeometry x="0.5039" y="2" relative="1" as="geometry">
            <mxPoint as="offset" />
          </mxGeometry>
        </mxCell>
        <mxCell id="Pv4LteulCFaErLVc3rtw-75" value="无符号扩展" style="rounded=1;whiteSpace=wrap;html=1;" parent="1" vertex="1">
          <mxGeometry x="1679.8600000000001" y="602.5" width="80" height="30" as="geometry" />
        </mxCell>
        <mxCell id="Pv4LteulCFaErLVc3rtw-100" style="edgeStyle=orthogonalEdgeStyle;rounded=0;orthogonalLoop=1;jettySize=auto;html=1;exitX=0;exitY=0.25;exitDx=0;exitDy=0;" parent="1" source="Pv4LteulCFaErLVc3rtw-76" edge="1">
          <mxGeometry relative="1" as="geometry">
            <mxPoint x="1759.8600000000001" y="372.2619047619048" as="targetPoint" />
          </mxGeometry>
        </mxCell>
        <mxCell id="Pv4LteulCFaErLVc3rtw-113" value="8" style="edgeLabel;html=1;align=center;verticalAlign=middle;resizable=0;points=[];" parent="Pv4LteulCFaErLVc3rtw-100" vertex="1" connectable="0">
          <mxGeometry x="0.5325" y="-2" relative="1" as="geometry">
            <mxPoint as="offset" />
          </mxGeometry>
        </mxCell>
        <mxCell id="Pv4LteulCFaErLVc3rtw-103" style="edgeStyle=orthogonalEdgeStyle;rounded=0;orthogonalLoop=1;jettySize=auto;html=1;exitX=0;exitY=0.25;exitDx=0;exitDy=0;entryX=1;entryY=0.5;entryDx=0;entryDy=0;" parent="1" source="Pv4LteulCFaErLVc3rtw-76" target="Pv4LteulCFaErLVc3rtw-82" edge="1">
          <mxGeometry relative="1" as="geometry" />
        </mxCell>
        <mxCell id="Pv4LteulCFaErLVc3rtw-114" value="8" style="edgeLabel;html=1;align=center;verticalAlign=middle;resizable=0;points=[];" parent="Pv4LteulCFaErLVc3rtw-103" vertex="1" connectable="0">
          <mxGeometry x="0.6452" relative="1" as="geometry">
            <mxPoint as="offset" />
          </mxGeometry>
        </mxCell>
        <mxCell id="Pv4LteulCFaErLVc3rtw-76" value="" style="rounded=1;whiteSpace=wrap;html=1;" parent="1" vertex="1">
          <mxGeometry x="1939.8600000000001" y="347.5" width="50" height="100" as="geometry" />
        </mxCell>
        <mxCell id="Pv4LteulCFaErLVc3rtw-104" style="edgeStyle=orthogonalEdgeStyle;rounded=0;orthogonalLoop=1;jettySize=auto;html=1;exitX=0;exitY=0.5;exitDx=0;exitDy=0;entryX=1;entryY=0.25;entryDx=0;entryDy=0;" parent="1" source="Pv4LteulCFaErLVc3rtw-81" target="Pv4LteulCFaErLVc3rtw-63" edge="1">
          <mxGeometry relative="1" as="geometry">
            <Array as="points">
              <mxPoint x="1629.8600000000001" y="377" />
              <mxPoint x="1629.8600000000001" y="345" />
            </Array>
          </mxGeometry>
        </mxCell>
        <mxCell id="Pv4LteulCFaErLVc3rtw-108" value="32" style="edgeLabel;html=1;align=center;verticalAlign=middle;resizable=0;points=[];" parent="Pv4LteulCFaErLVc3rtw-104" vertex="1" connectable="0">
          <mxGeometry x="-0.6322" y="-2" relative="1" as="geometry">
            <mxPoint as="offset" />
          </mxGeometry>
        </mxCell>
        <mxCell id="Pv4LteulCFaErLVc3rtw-81" value="符号扩展" style="rounded=1;whiteSpace=wrap;html=1;" parent="1" vertex="1">
          <mxGeometry x="1679.8600000000001" y="362.5" width="80" height="30" as="geometry" />
        </mxCell>
        <mxCell id="Pv4LteulCFaErLVc3rtw-105" style="edgeStyle=orthogonalEdgeStyle;rounded=0;orthogonalLoop=1;jettySize=auto;html=1;exitX=0;exitY=0.5;exitDx=0;exitDy=0;entryX=1;entryY=0.5;entryDx=0;entryDy=0;" parent="1" source="Pv4LteulCFaErLVc3rtw-82" target="Pv4LteulCFaErLVc3rtw-63" edge="1">
          <mxGeometry relative="1" as="geometry" />
        </mxCell>
        <mxCell id="Pv4LteulCFaErLVc3rtw-110" value="32" style="edgeLabel;html=1;align=center;verticalAlign=middle;resizable=0;points=[];" parent="Pv4LteulCFaErLVc3rtw-105" vertex="1" connectable="0">
          <mxGeometry x="0.6438" y="1" relative="1" as="geometry">
            <mxPoint as="offset" />
          </mxGeometry>
        </mxCell>
        <mxCell id="Pv4LteulCFaErLVc3rtw-82" value="无符号扩展" style="rounded=1;whiteSpace=wrap;html=1;" parent="1" vertex="1">
          <mxGeometry x="1679.8600000000001" y="412.5" width="80" height="30" as="geometry" />
        </mxCell>
        <mxCell id="fh8E5jdkVNrsA2WqjcJn-1" value="" style="shape=waypoint;sketch=0;fillStyle=solid;size=6;pointerEvents=1;points=[];fillColor=none;resizable=0;rotatable=0;perimeter=centerPerimeter;snapToPoint=1;" parent="1" vertex="1">
          <mxGeometry x="1069.8600000000001" y="745" width="20" height="20" as="geometry" />
        </mxCell>
        <mxCell id="fh8E5jdkVNrsA2WqjcJn-46" style="edgeStyle=orthogonalEdgeStyle;rounded=0;orthogonalLoop=1;jettySize=auto;html=1;entryX=0;entryY=0.5;entryDx=0;entryDy=0;" parent="1" target="Pv4LteulCFaErLVc3rtw-38" edge="1">
          <mxGeometry relative="1" as="geometry">
            <mxPoint x="820" y="880" as="sourcePoint" />
          </mxGeometry>
        </mxCell>
        <mxCell id="_0G32NAz595wTfVrgWNU-138" value="5" style="edgeLabel;html=1;align=center;verticalAlign=middle;resizable=0;points=[];" parent="fh8E5jdkVNrsA2WqjcJn-46" vertex="1" connectable="0">
          <mxGeometry x="-0.2591" y="-1" relative="1" as="geometry">
            <mxPoint as="offset" />
          </mxGeometry>
        </mxCell>
        <mxCell id="fh8E5jdkVNrsA2WqjcJn-2" value="" style="shape=waypoint;sketch=0;fillStyle=solid;size=6;pointerEvents=1;points=[];fillColor=none;resizable=0;rotatable=0;perimeter=centerPerimeter;snapToPoint=1;" parent="1" vertex="1">
          <mxGeometry x="809.86" y="870" width="20" height="20" as="geometry" />
        </mxCell>
        <mxCell id="fh8E5jdkVNrsA2WqjcJn-8" value="" style="shape=waypoint;sketch=0;fillStyle=solid;size=6;pointerEvents=1;points=[];fillColor=none;resizable=0;rotatable=0;perimeter=centerPerimeter;snapToPoint=1;" parent="1" vertex="1">
          <mxGeometry x="809.86" y="795" width="20" height="20" as="geometry" />
        </mxCell>
        <mxCell id="fh8E5jdkVNrsA2WqjcJn-9" value="" style="shape=waypoint;sketch=0;fillStyle=solid;size=6;pointerEvents=1;points=[];fillColor=none;resizable=0;rotatable=0;perimeter=centerPerimeter;snapToPoint=1;" parent="1" vertex="1">
          <mxGeometry x="809.86" y="755" width="20" height="20" as="geometry" />
        </mxCell>
        <mxCell id="fh8E5jdkVNrsA2WqjcJn-10" value="" style="shape=waypoint;sketch=0;fillStyle=solid;size=6;pointerEvents=1;points=[];fillColor=none;resizable=0;rotatable=0;perimeter=centerPerimeter;snapToPoint=1;" parent="1" vertex="1">
          <mxGeometry x="809.86" y="965" width="20" height="20" as="geometry" />
        </mxCell>
        <mxCell id="fh8E5jdkVNrsA2WqjcJn-13" value="" style="shape=waypoint;sketch=0;fillStyle=solid;size=6;pointerEvents=1;points=[];fillColor=none;resizable=0;rotatable=0;perimeter=centerPerimeter;snapToPoint=1;" parent="1" vertex="1">
          <mxGeometry x="879.86" y="965" width="20" height="20" as="geometry" />
        </mxCell>
        <mxCell id="fh8E5jdkVNrsA2WqjcJn-16" value="" style="shape=waypoint;sketch=0;fillStyle=solid;size=6;pointerEvents=1;points=[];fillColor=none;resizable=0;rotatable=0;perimeter=centerPerimeter;snapToPoint=1;" parent="1" vertex="1">
          <mxGeometry x="1024.8600000000001" y="965" width="20" height="20" as="geometry" />
        </mxCell>
        <mxCell id="fh8E5jdkVNrsA2WqjcJn-30" value="" style="shape=waypoint;sketch=0;fillStyle=solid;size=6;pointerEvents=1;points=[];fillColor=none;resizable=0;rotatable=0;perimeter=centerPerimeter;snapToPoint=1;" parent="1" vertex="1">
          <mxGeometry x="949.86" y="478" width="20" height="20" as="geometry" />
        </mxCell>
        <mxCell id="fh8E5jdkVNrsA2WqjcJn-31" value="" style="shape=waypoint;sketch=0;fillStyle=solid;size=6;pointerEvents=1;points=[];fillColor=none;resizable=0;rotatable=0;perimeter=centerPerimeter;snapToPoint=1;" parent="1" vertex="1">
          <mxGeometry x="979.86" y="478" width="20" height="20" as="geometry" />
        </mxCell>
        <mxCell id="fh8E5jdkVNrsA2WqjcJn-37" value="" style="shape=waypoint;sketch=0;fillStyle=solid;size=6;pointerEvents=1;points=[];fillColor=none;resizable=0;rotatable=0;perimeter=centerPerimeter;snapToPoint=1;" parent="1" vertex="1">
          <mxGeometry x="1909.8600000000001" y="558" width="20" height="20" as="geometry" />
        </mxCell>
        <mxCell id="fh8E5jdkVNrsA2WqjcJn-38" value="" style="shape=waypoint;sketch=0;fillStyle=solid;size=6;pointerEvents=1;points=[];fillColor=none;resizable=0;rotatable=0;perimeter=centerPerimeter;snapToPoint=1;" parent="1" vertex="1">
          <mxGeometry x="1839.8600000000001" y="557" width="20" height="20" as="geometry" />
        </mxCell>
        <mxCell id="fh8E5jdkVNrsA2WqjcJn-39" value="" style="shape=waypoint;sketch=0;fillStyle=solid;size=6;pointerEvents=1;points=[];fillColor=none;resizable=0;rotatable=0;perimeter=centerPerimeter;snapToPoint=1;" parent="1" vertex="1">
          <mxGeometry x="2109.86" y="613" width="20" height="20" as="geometry" />
        </mxCell>
        <mxCell id="fh8E5jdkVNrsA2WqjcJn-40" value="" style="shape=waypoint;sketch=0;fillStyle=solid;size=6;pointerEvents=1;points=[];fillColor=none;resizable=0;rotatable=0;perimeter=centerPerimeter;snapToPoint=1;" parent="1" vertex="1">
          <mxGeometry x="2109.86" y="560" width="20" height="20" as="geometry" />
        </mxCell>
        <mxCell id="fh8E5jdkVNrsA2WqjcJn-41" value="" style="shape=waypoint;sketch=0;fillStyle=solid;size=6;pointerEvents=1;points=[];fillColor=none;resizable=0;rotatable=0;perimeter=centerPerimeter;snapToPoint=1;" parent="1" vertex="1">
          <mxGeometry x="1839.8600000000001" y="363" width="20" height="20" as="geometry" />
        </mxCell>
        <mxCell id="fh8E5jdkVNrsA2WqjcJn-42" value="" style="shape=waypoint;sketch=0;fillStyle=solid;size=6;pointerEvents=1;points=[];fillColor=none;resizable=0;rotatable=0;perimeter=centerPerimeter;snapToPoint=1;" parent="1" vertex="1">
          <mxGeometry x="2029.8600000000001" y="413" width="20" height="20" as="geometry" />
        </mxCell>
        <mxCell id="fh8E5jdkVNrsA2WqjcJn-43" value="" style="shape=waypoint;sketch=0;fillStyle=solid;size=6;pointerEvents=1;points=[];fillColor=none;resizable=0;rotatable=0;perimeter=centerPerimeter;snapToPoint=1;" parent="1" vertex="1">
          <mxGeometry x="1264.8600000000001" y="465" width="20" height="20" as="geometry" />
        </mxCell>
        <mxCell id="iTuuwq5CignK22YuEiSl-6" style="edgeStyle=orthogonalEdgeStyle;rounded=0;orthogonalLoop=1;jettySize=auto;html=1;endArrow=none;startFill=0;" edge="1" parent="1" source="_0G32NAz595wTfVrgWNU-4" target="iTuuwq5CignK22YuEiSl-22">
          <mxGeometry relative="1" as="geometry">
            <mxPoint x="1120" y="1310" as="targetPoint" />
            <Array as="points" />
          </mxGeometry>
        </mxCell>
        <mxCell id="_0G32NAz595wTfVrgWNU-4" value="" style="shape=waypoint;sketch=0;fillStyle=solid;size=6;pointerEvents=1;points=[];fillColor=none;resizable=0;rotatable=0;perimeter=centerPerimeter;snapToPoint=1;" parent="1" vertex="1">
          <mxGeometry x="1109.8600000000001" y="920" width="20" height="20" as="geometry" />
        </mxCell>
        <mxCell id="_0G32NAz595wTfVrgWNU-8" value="RegData[31:24]" style="text;html=1;align=center;verticalAlign=middle;whiteSpace=wrap;rounded=0;" parent="1" vertex="1">
          <mxGeometry x="1138.0000000000002" y="1235" width="60" height="30" as="geometry" />
        </mxCell>
        <mxCell id="_0G32NAz595wTfVrgWNU-11" value="RegData[23:16]" style="text;html=1;align=center;verticalAlign=middle;whiteSpace=wrap;rounded=0;" parent="1" vertex="1">
          <mxGeometry x="1138" y="1195" width="60" height="30" as="geometry" />
        </mxCell>
        <mxCell id="_0G32NAz595wTfVrgWNU-13" value="RegData[15:8]" style="text;html=1;align=center;verticalAlign=middle;whiteSpace=wrap;rounded=0;" parent="1" vertex="1">
          <mxGeometry x="1138.0000000000002" y="1155" width="60" height="30" as="geometry" />
        </mxCell>
        <mxCell id="iTuuwq5CignK22YuEiSl-94" style="edgeStyle=orthogonalEdgeStyle;rounded=0;orthogonalLoop=1;jettySize=auto;html=1;entryX=1;entryY=0.5;entryDx=0;entryDy=0;shape=link;" edge="1" parent="1" source="_0G32NAz595wTfVrgWNU-22" target="_0G32NAz595wTfVrgWNU-20">
          <mxGeometry relative="1" as="geometry" />
        </mxCell>
        <mxCell id="_0G32NAz595wTfVrgWNU-22" value="写数据" style="text;html=1;align=center;verticalAlign=middle;whiteSpace=wrap;rounded=0;" parent="1" vertex="1">
          <mxGeometry x="1969.8600000000001" y="795" width="60" height="30" as="geometry" />
        </mxCell>
        <mxCell id="iTuuwq5CignK22YuEiSl-66" style="edgeStyle=orthogonalEdgeStyle;rounded=0;orthogonalLoop=1;jettySize=auto;html=1;entryX=0.5;entryY=1;entryDx=0;entryDy=0;" edge="1" parent="1" source="_0G32NAz595wTfVrgWNU-27" target="_0G32NAz595wTfVrgWNU-18">
          <mxGeometry relative="1" as="geometry" />
        </mxCell>
        <mxCell id="iTuuwq5CignK22YuEiSl-82" value="1" style="edgeLabel;html=1;align=center;verticalAlign=middle;resizable=0;points=[];" vertex="1" connectable="0" parent="iTuuwq5CignK22YuEiSl-66">
          <mxGeometry x="0.5226" y="1" relative="1" as="geometry">
            <mxPoint as="offset" />
          </mxGeometry>
        </mxCell>
        <mxCell id="_0G32NAz595wTfVrgWNU-27" value="" style="verticalLabelPosition=bottom;shadow=0;dashed=0;align=center;html=1;verticalAlign=top;shape=mxgraph.electrical.logic_gates.logic_gate;operation=or;rotation=-180;" parent="1" vertex="1">
          <mxGeometry x="1909.8600000000001" y="1005" width="60" height="30" as="geometry" />
        </mxCell>
        <mxCell id="iTuuwq5CignK22YuEiSl-75" style="edgeStyle=orthogonalEdgeStyle;rounded=0;orthogonalLoop=1;jettySize=auto;html=1;entryX=0;entryY=0.25;entryDx=0;entryDy=0;entryPerimeter=0;endArrow=none;startFill=0;" edge="1" parent="1" target="_0G32NAz595wTfVrgWNU-29">
          <mxGeometry relative="1" as="geometry">
            <mxPoint x="2100" y="1140" as="sourcePoint" />
            <Array as="points">
              <mxPoint x="1970" y="1140" />
              <mxPoint x="1970" y="947" />
            </Array>
          </mxGeometry>
        </mxCell>
        <mxCell id="_0G32NAz595wTfVrgWNU-29" value="" style="verticalLabelPosition=bottom;shadow=0;dashed=0;align=center;html=1;verticalAlign=top;shape=mxgraph.electrical.logic_gates.logic_gate;operation=or;rotation=-180;" parent="1" vertex="1">
          <mxGeometry x="1908.72" y="925" width="60" height="30" as="geometry" />
        </mxCell>
        <mxCell id="iTuuwq5CignK22YuEiSl-65" style="edgeStyle=orthogonalEdgeStyle;rounded=0;orthogonalLoop=1;jettySize=auto;html=1;entryX=0.5;entryY=1;entryDx=0;entryDy=0;" edge="1" parent="1" source="_0G32NAz595wTfVrgWNU-30" target="_0G32NAz595wTfVrgWNU-19">
          <mxGeometry relative="1" as="geometry" />
        </mxCell>
        <mxCell id="iTuuwq5CignK22YuEiSl-81" value="1" style="edgeLabel;html=1;align=center;verticalAlign=middle;resizable=0;points=[];" vertex="1" connectable="0" parent="iTuuwq5CignK22YuEiSl-65">
          <mxGeometry x="0.5407" y="-1" relative="1" as="geometry">
            <mxPoint as="offset" />
          </mxGeometry>
        </mxCell>
        <mxCell id="_0G32NAz595wTfVrgWNU-30" value="" style="verticalLabelPosition=bottom;shadow=0;dashed=0;align=center;html=1;verticalAlign=top;shape=mxgraph.electrical.logic_gates.logic_gate;operation=or;rotation=-180;" parent="1" vertex="1">
          <mxGeometry x="1909.8600000000004" y="965" width="60" height="30" as="geometry" />
        </mxCell>
        <mxCell id="iTuuwq5CignK22YuEiSl-68" style="edgeStyle=orthogonalEdgeStyle;rounded=0;orthogonalLoop=1;jettySize=auto;html=1;entryX=0;entryY=0.75;entryDx=0;entryDy=0;entryPerimeter=0;" edge="1" parent="1" source="_0G32NAz595wTfVrgWNU-46" target="_0G32NAz595wTfVrgWNU-29">
          <mxGeometry relative="1" as="geometry">
            <mxPoint x="2070" y="940" as="targetPoint" />
            <Array as="points">
              <mxPoint x="2200" y="933" />
              <mxPoint x="2079" y="933" />
            </Array>
          </mxGeometry>
        </mxCell>
        <mxCell id="_0G32NAz595wTfVrgWNU-46" value="" style="shape=waypoint;sketch=0;fillStyle=solid;size=6;pointerEvents=1;points=[];fillColor=none;resizable=0;rotatable=0;perimeter=centerPerimeter;snapToPoint=1;" parent="1" vertex="1">
          <mxGeometry x="2190" y="963" width="20" height="20" as="geometry" />
        </mxCell>
        <mxCell id="_0G32NAz595wTfVrgWNU-65" style="edgeStyle=orthogonalEdgeStyle;rounded=0;orthogonalLoop=1;jettySize=auto;html=1;exitX=0;exitY=0.5;exitDx=0;exitDy=0;entryX=0;entryY=0.5;entryDx=0;entryDy=0;" parent="1" target="_0G32NAz595wTfVrgWNU-47" edge="1">
          <mxGeometry relative="1" as="geometry">
            <mxPoint x="1869" y="1180" as="sourcePoint" />
          </mxGeometry>
        </mxCell>
        <mxCell id="_0G32NAz595wTfVrgWNU-75" value="2" style="edgeLabel;html=1;align=center;verticalAlign=middle;resizable=0;points=[];" parent="_0G32NAz595wTfVrgWNU-65" vertex="1" connectable="0">
          <mxGeometry x="0.0304" y="2" relative="1" as="geometry">
            <mxPoint x="-1" as="offset" />
          </mxGeometry>
        </mxCell>
        <mxCell id="_0G32NAz595wTfVrgWNU-79" style="edgeStyle=orthogonalEdgeStyle;rounded=0;orthogonalLoop=1;jettySize=auto;html=1;exitX=1;exitY=0.5;exitDx=0;exitDy=0;entryX=0;entryY=0.25;entryDx=0;entryDy=0;" parent="1" source="_0G32NAz595wTfVrgWNU-47" target="_0G32NAz595wTfVrgWNU-52" edge="1">
          <mxGeometry relative="1" as="geometry" />
        </mxCell>
        <mxCell id="_0G32NAz595wTfVrgWNU-91" value="4" style="edgeLabel;html=1;align=center;verticalAlign=middle;resizable=0;points=[];" parent="_0G32NAz595wTfVrgWNU-79" vertex="1" connectable="0">
          <mxGeometry x="0.7496" y="-1" relative="1" as="geometry">
            <mxPoint as="offset" />
          </mxGeometry>
        </mxCell>
        <mxCell id="_0G32NAz595wTfVrgWNU-47" value="" style="rounded=1;whiteSpace=wrap;html=1;" parent="1" vertex="1">
          <mxGeometry x="1918.58" y="1145" width="40.28" height="70" as="geometry" />
        </mxCell>
        <mxCell id="_0G32NAz595wTfVrgWNU-49" value="Addr[31:0]" style="text;html=1;align=center;verticalAlign=middle;whiteSpace=wrap;rounded=0;" parent="1" vertex="1">
          <mxGeometry x="1878.8600000000001" y="815" width="60" height="30" as="geometry" />
        </mxCell>
        <mxCell id="_0G32NAz595wTfVrgWNU-67" style="edgeStyle=orthogonalEdgeStyle;rounded=0;orthogonalLoop=1;jettySize=auto;html=1;exitX=0;exitY=0.5;exitDx=0;exitDy=0;entryX=0;entryY=0.5;entryDx=0;entryDy=0;" parent="1" target="_0G32NAz595wTfVrgWNU-50" edge="1">
          <mxGeometry relative="1" as="geometry">
            <mxPoint x="1869" y="1440" as="sourcePoint" />
          </mxGeometry>
        </mxCell>
        <mxCell id="_0G32NAz595wTfVrgWNU-77" value="2" style="edgeLabel;html=1;align=center;verticalAlign=middle;resizable=0;points=[];" parent="_0G32NAz595wTfVrgWNU-67" vertex="1" connectable="0">
          <mxGeometry x="-0.119" y="-3" relative="1" as="geometry">
            <mxPoint y="-3" as="offset" />
          </mxGeometry>
        </mxCell>
        <mxCell id="_0G32NAz595wTfVrgWNU-81" style="edgeStyle=orthogonalEdgeStyle;rounded=0;orthogonalLoop=1;jettySize=auto;html=1;exitX=1;exitY=0.5;exitDx=0;exitDy=0;entryX=0;entryY=0.75;entryDx=0;entryDy=0;" parent="1" source="_0G32NAz595wTfVrgWNU-50" target="_0G32NAz595wTfVrgWNU-52" edge="1">
          <mxGeometry relative="1" as="geometry" />
        </mxCell>
        <mxCell id="_0G32NAz595wTfVrgWNU-93" value="4" style="edgeLabel;html=1;align=center;verticalAlign=middle;resizable=0;points=[];" parent="_0G32NAz595wTfVrgWNU-81" vertex="1" connectable="0">
          <mxGeometry x="0.7248" y="-1" relative="1" as="geometry">
            <mxPoint as="offset" />
          </mxGeometry>
        </mxCell>
        <mxCell id="_0G32NAz595wTfVrgWNU-50" value="" style="rounded=1;whiteSpace=wrap;html=1;" parent="1" vertex="1">
          <mxGeometry x="1918.58" y="1405" width="40.28" height="70" as="geometry" />
        </mxCell>
        <mxCell id="_0G32NAz595wTfVrgWNU-66" style="edgeStyle=orthogonalEdgeStyle;rounded=0;orthogonalLoop=1;jettySize=auto;html=1;exitX=0;exitY=0.5;exitDx=0;exitDy=0;entryX=0;entryY=0.5;entryDx=0;entryDy=0;" parent="1" target="_0G32NAz595wTfVrgWNU-51" edge="1">
          <mxGeometry relative="1" as="geometry">
            <mxPoint x="1869" y="1320" as="sourcePoint" />
          </mxGeometry>
        </mxCell>
        <mxCell id="_0G32NAz595wTfVrgWNU-76" value="2" style="edgeLabel;html=1;align=center;verticalAlign=middle;resizable=0;points=[];" parent="_0G32NAz595wTfVrgWNU-66" vertex="1" connectable="0">
          <mxGeometry x="-0.1214" relative="1" as="geometry">
            <mxPoint as="offset" />
          </mxGeometry>
        </mxCell>
        <mxCell id="_0G32NAz595wTfVrgWNU-80" style="edgeStyle=orthogonalEdgeStyle;rounded=0;orthogonalLoop=1;jettySize=auto;html=1;exitX=1;exitY=0.5;exitDx=0;exitDy=0;entryX=0;entryY=0.5;entryDx=0;entryDy=0;" parent="1" source="_0G32NAz595wTfVrgWNU-51" target="_0G32NAz595wTfVrgWNU-52" edge="1">
          <mxGeometry relative="1" as="geometry" />
        </mxCell>
        <mxCell id="_0G32NAz595wTfVrgWNU-92" value="4" style="edgeLabel;html=1;align=center;verticalAlign=middle;resizable=0;points=[];" parent="_0G32NAz595wTfVrgWNU-80" vertex="1" connectable="0">
          <mxGeometry x="0.4935" y="-2" relative="1" as="geometry">
            <mxPoint as="offset" />
          </mxGeometry>
        </mxCell>
        <mxCell id="_0G32NAz595wTfVrgWNU-51" value="" style="rounded=1;whiteSpace=wrap;html=1;" parent="1" vertex="1">
          <mxGeometry x="1918.58" y="1285" width="40.28" height="70" as="geometry" />
        </mxCell>
        <mxCell id="iTuuwq5CignK22YuEiSl-57" style="edgeStyle=orthogonalEdgeStyle;rounded=0;orthogonalLoop=1;jettySize=auto;html=1;exitX=1;exitY=0.5;exitDx=0;exitDy=0;endArrow=none;startFill=0;" edge="1" parent="1" source="_0G32NAz595wTfVrgWNU-52" target="iTuuwq5CignK22YuEiSl-72">
          <mxGeometry relative="1" as="geometry">
            <mxPoint x="2200" y="880" as="targetPoint" />
          </mxGeometry>
        </mxCell>
        <mxCell id="_0G32NAz595wTfVrgWNU-52" value="" style="rounded=1;whiteSpace=wrap;html=1;" parent="1" vertex="1">
          <mxGeometry x="2068.86" y="1265" width="50" height="110" as="geometry" />
        </mxCell>
        <mxCell id="_0G32NAz595wTfVrgWNU-56" value="" style="group;rotation=-90;" parent="1" vertex="1" connectable="0">
          <mxGeometry x="1610" y="990" width="160" height="20" as="geometry" />
        </mxCell>
        <mxCell id="_0G32NAz595wTfVrgWNU-16" value="" style="rounded=0;whiteSpace=wrap;html=1;movable=1;resizable=1;rotatable=1;deletable=1;editable=1;locked=0;connectable=1;rotation=-90;" parent="_0G32NAz595wTfVrgWNU-56" vertex="1">
          <mxGeometry x="60" y="60" width="40" height="20" as="geometry" />
        </mxCell>
        <mxCell id="_0G32NAz595wTfVrgWNU-18" value="" style="rounded=0;whiteSpace=wrap;html=1;movable=1;resizable=1;rotatable=1;deletable=1;editable=1;locked=0;connectable=1;rotation=-90;" parent="_0G32NAz595wTfVrgWNU-56" vertex="1">
          <mxGeometry x="60" y="20" width="40" height="20" as="geometry" />
        </mxCell>
        <mxCell id="_0G32NAz595wTfVrgWNU-19" value="" style="rounded=0;whiteSpace=wrap;html=1;movable=1;resizable=1;rotatable=1;deletable=1;editable=1;locked=0;connectable=1;rotation=-90;" parent="_0G32NAz595wTfVrgWNU-56" vertex="1">
          <mxGeometry x="60" y="-20" width="40" height="20" as="geometry" />
        </mxCell>
        <mxCell id="_0G32NAz595wTfVrgWNU-20" value="" style="rounded=0;whiteSpace=wrap;html=1;movable=1;resizable=1;rotatable=1;deletable=1;editable=1;locked=0;connectable=1;rotation=-90;" parent="_0G32NAz595wTfVrgWNU-56" vertex="1">
          <mxGeometry x="60" y="-60" width="40" height="20" as="geometry" />
        </mxCell>
        <mxCell id="_0G32NAz595wTfVrgWNU-57" value="" style="endArrow=none;html=1;rounded=0;startFill=0;" parent="1" target="_0G32NAz595wTfVrgWNU-68" edge="1">
          <mxGeometry width="50" height="50" relative="1" as="geometry">
            <mxPoint x="1870" y="850" as="sourcePoint" />
            <mxPoint x="1870" y="1610" as="targetPoint" />
          </mxGeometry>
        </mxCell>
        <mxCell id="_0G32NAz595wTfVrgWNU-59" value="2" style="edgeLabel;html=1;align=center;verticalAlign=middle;resizable=0;points=[];" parent="_0G32NAz595wTfVrgWNU-57" vertex="1" connectable="0">
          <mxGeometry x="-0.5053" y="2" relative="1" as="geometry">
            <mxPoint x="-2" y="7" as="offset" />
          </mxGeometry>
        </mxCell>
        <mxCell id="_0G32NAz595wTfVrgWNU-58" value="Addr[1:0]" style="text;html=1;align=center;verticalAlign=middle;whiteSpace=wrap;rounded=0;" parent="1" vertex="1">
          <mxGeometry x="1810" y="1140" width="60" height="30" as="geometry" />
        </mxCell>
        <mxCell id="_0G32NAz595wTfVrgWNU-61" value="" style="shape=waypoint;sketch=0;fillStyle=solid;size=6;pointerEvents=1;points=[];fillColor=none;resizable=0;rotatable=0;perimeter=centerPerimeter;snapToPoint=1;" parent="1" vertex="1">
          <mxGeometry x="1859.86" y="840" width="20" height="20" as="geometry" />
        </mxCell>
        <mxCell id="_0G32NAz595wTfVrgWNU-68" value="" style="shape=waypoint;sketch=0;fillStyle=solid;size=6;pointerEvents=1;points=[];fillColor=none;resizable=0;rotatable=0;perimeter=centerPerimeter;snapToPoint=1;" parent="1" vertex="1">
          <mxGeometry x="1858.86" y="1430" width="20" height="20" as="geometry" />
        </mxCell>
        <mxCell id="_0G32NAz595wTfVrgWNU-69" value="" style="shape=waypoint;sketch=0;fillStyle=solid;size=6;pointerEvents=1;points=[];fillColor=none;resizable=0;rotatable=0;perimeter=centerPerimeter;snapToPoint=1;" parent="1" vertex="1">
          <mxGeometry x="1858.86" y="1310" width="20" height="20" as="geometry" />
        </mxCell>
        <mxCell id="_0G32NAz595wTfVrgWNU-74" value="" style="shape=waypoint;sketch=0;fillStyle=solid;size=6;pointerEvents=1;points=[];fillColor=none;resizable=0;rotatable=0;perimeter=centerPerimeter;snapToPoint=1;" parent="1" vertex="1">
          <mxGeometry x="1858.86" y="1170" width="20" height="20" as="geometry" />
        </mxCell>
        <mxCell id="_0G32NAz595wTfVrgWNU-84" value="" style="group" parent="1" vertex="1" connectable="0">
          <mxGeometry x="1948.86" y="1415" width="60" height="30" as="geometry" />
        </mxCell>
        <mxCell id="_0G32NAz595wTfVrgWNU-82" value="BE" style="text;html=1;align=center;verticalAlign=middle;whiteSpace=wrap;rounded=0;" parent="_0G32NAz595wTfVrgWNU-84" vertex="1">
          <mxGeometry width="60" height="30" as="geometry" />
        </mxCell>
        <mxCell id="_0G32NAz595wTfVrgWNU-83" value="" style="endArrow=none;html=1;rounded=0;" parent="_0G32NAz595wTfVrgWNU-84" edge="1">
          <mxGeometry width="50" height="50" relative="1" as="geometry">
            <mxPoint x="20" as="sourcePoint" />
            <mxPoint x="40" as="targetPoint" />
          </mxGeometry>
        </mxCell>
        <mxCell id="_0G32NAz595wTfVrgWNU-85" value="" style="group" parent="1" vertex="1" connectable="0">
          <mxGeometry x="1948.86" y="1155" width="60" height="30" as="geometry" />
        </mxCell>
        <mxCell id="_0G32NAz595wTfVrgWNU-86" value="BE" style="text;html=1;align=center;verticalAlign=middle;whiteSpace=wrap;rounded=0;" parent="_0G32NAz595wTfVrgWNU-85" vertex="1">
          <mxGeometry width="60" height="30" as="geometry" />
        </mxCell>
        <mxCell id="_0G32NAz595wTfVrgWNU-87" value="" style="endArrow=none;html=1;rounded=0;" parent="_0G32NAz595wTfVrgWNU-85" edge="1">
          <mxGeometry width="50" height="50" relative="1" as="geometry">
            <mxPoint x="20" as="sourcePoint" />
            <mxPoint x="40" as="targetPoint" />
          </mxGeometry>
        </mxCell>
        <mxCell id="_0G32NAz595wTfVrgWNU-88" value="" style="group" parent="1" vertex="1" connectable="0">
          <mxGeometry x="1949" y="1295" width="60" height="30" as="geometry" />
        </mxCell>
        <mxCell id="_0G32NAz595wTfVrgWNU-89" value="BE" style="text;html=1;align=center;verticalAlign=middle;whiteSpace=wrap;rounded=0;" parent="_0G32NAz595wTfVrgWNU-88" vertex="1">
          <mxGeometry width="60" height="30" as="geometry" />
        </mxCell>
        <mxCell id="_0G32NAz595wTfVrgWNU-90" value="" style="endArrow=none;html=1;rounded=0;" parent="_0G32NAz595wTfVrgWNU-88" edge="1">
          <mxGeometry width="50" height="50" relative="1" as="geometry">
            <mxPoint x="20" as="sourcePoint" />
            <mxPoint x="40" as="targetPoint" />
          </mxGeometry>
        </mxCell>
        <mxCell id="_0G32NAz595wTfVrgWNU-105" value="" style="group" parent="1" vertex="1" connectable="0">
          <mxGeometry x="1968.72" y="985" width="60" height="30" as="geometry" />
        </mxCell>
        <mxCell id="_0G32NAz595wTfVrgWNU-101" value="BE2" style="text;html=1;align=center;verticalAlign=middle;whiteSpace=wrap;rounded=0;" parent="_0G32NAz595wTfVrgWNU-105" vertex="1">
          <mxGeometry width="60" height="30" as="geometry" />
        </mxCell>
        <mxCell id="_0G32NAz595wTfVrgWNU-104" value="" style="endArrow=none;html=1;rounded=0;" parent="_0G32NAz595wTfVrgWNU-105" edge="1">
          <mxGeometry width="50" height="50" relative="1" as="geometry">
            <mxPoint x="20" as="sourcePoint" />
            <mxPoint x="40" as="targetPoint" />
          </mxGeometry>
        </mxCell>
        <mxCell id="_0G32NAz595wTfVrgWNU-106" value="" style="group" parent="1" vertex="1" connectable="0">
          <mxGeometry x="1969.8600000000001" y="949.38" width="60" height="30" as="geometry" />
        </mxCell>
        <mxCell id="_0G32NAz595wTfVrgWNU-107" value="BE1" style="text;html=1;align=center;verticalAlign=middle;whiteSpace=wrap;rounded=0;" parent="_0G32NAz595wTfVrgWNU-106" vertex="1">
          <mxGeometry width="60" height="30" as="geometry" />
        </mxCell>
        <mxCell id="_0G32NAz595wTfVrgWNU-108" value="" style="endArrow=none;html=1;rounded=0;" parent="_0G32NAz595wTfVrgWNU-106" edge="1">
          <mxGeometry width="50" height="50" relative="1" as="geometry">
            <mxPoint x="20" as="sourcePoint" />
            <mxPoint x="40" as="targetPoint" />
          </mxGeometry>
        </mxCell>
        <mxCell id="_0G32NAz595wTfVrgWNU-112" value="" style="group" parent="1" vertex="1" connectable="0">
          <mxGeometry x="1969.9999999999995" y="1022" width="60" height="30" as="geometry" />
        </mxCell>
        <mxCell id="_0G32NAz595wTfVrgWNU-113" value="BE3" style="text;html=1;align=center;verticalAlign=middle;whiteSpace=wrap;rounded=0;" parent="_0G32NAz595wTfVrgWNU-112" vertex="1">
          <mxGeometry width="60" height="30" as="geometry" />
        </mxCell>
        <mxCell id="_0G32NAz595wTfVrgWNU-114" value="" style="endArrow=none;html=1;rounded=0;" parent="_0G32NAz595wTfVrgWNU-112" edge="1">
          <mxGeometry width="50" height="50" relative="1" as="geometry">
            <mxPoint x="20" as="sourcePoint" />
            <mxPoint x="40" as="targetPoint" />
          </mxGeometry>
        </mxCell>
        <mxCell id="_0G32NAz595wTfVrgWNU-116" value="" style="group" parent="1" vertex="1" connectable="0">
          <mxGeometry x="1970.0000000000002" y="901.25" width="60" height="30" as="geometry" />
        </mxCell>
        <mxCell id="_0G32NAz595wTfVrgWNU-117" value="BE0" style="text;html=1;align=center;verticalAlign=middle;whiteSpace=wrap;rounded=0;" parent="_0G32NAz595wTfVrgWNU-116" vertex="1">
          <mxGeometry width="60" height="30" as="geometry" />
        </mxCell>
        <mxCell id="_0G32NAz595wTfVrgWNU-118" value="" style="endArrow=none;html=1;rounded=0;" parent="_0G32NAz595wTfVrgWNU-116" edge="1">
          <mxGeometry width="50" height="50" relative="1" as="geometry">
            <mxPoint x="20" as="sourcePoint" />
            <mxPoint x="40" as="targetPoint" />
          </mxGeometry>
        </mxCell>
        <mxCell id="_0G32NAz595wTfVrgWNU-133" value="指令地址" style="text;html=1;align=center;verticalAlign=middle;whiteSpace=wrap;rounded=0;" parent="1" vertex="1">
          <mxGeometry x="570" y="1055" width="60" height="30" as="geometry" />
        </mxCell>
        <mxCell id="_0G32NAz595wTfVrgWNU-134" value="" style="shape=waypoint;sketch=0;fillStyle=solid;size=6;pointerEvents=1;points=[];fillColor=none;resizable=0;rotatable=0;perimeter=centerPerimeter;snapToPoint=1;" parent="1" vertex="1">
          <mxGeometry x="380" y="520" width="20" height="20" as="geometry" />
        </mxCell>
        <mxCell id="_0G32NAz595wTfVrgWNU-144" style="edgeStyle=orthogonalEdgeStyle;rounded=0;orthogonalLoop=1;jettySize=auto;html=1;exitX=1;exitY=0.5;exitDx=0;exitDy=0;entryX=0.5;entryY=0;entryDx=0;entryDy=0;" parent="1" source="_0G32NAz595wTfVrgWNU-140" target="NP07StkK-O7kic4M9z5p-44" edge="1">
          <mxGeometry relative="1" as="geometry" />
        </mxCell>
        <mxCell id="iTuuwq5CignK22YuEiSl-84" value="32" style="edgeLabel;html=1;align=center;verticalAlign=middle;resizable=0;points=[];" vertex="1" connectable="0" parent="_0G32NAz595wTfVrgWNU-144">
          <mxGeometry x="-0.7286" y="2" relative="1" as="geometry">
            <mxPoint as="offset" />
          </mxGeometry>
        </mxCell>
        <mxCell id="_0G32NAz595wTfVrgWNU-140" value="" style="rounded=1;whiteSpace=wrap;html=1;" parent="1" vertex="1">
          <mxGeometry x="580.0000000000001" y="642.5" width="50" height="90" as="geometry" />
        </mxCell>
        <mxCell id="NP07StkK-O7kic4M9z5p-22" value="MUX1" style="text;html=1;align=center;verticalAlign=middle;whiteSpace=wrap;rounded=0;fontSize=10;" parent="1" vertex="1">
          <mxGeometry x="869.86" y="840" width="60" height="30" as="geometry" />
        </mxCell>
        <mxCell id="_0G32NAz595wTfVrgWNU-145" value="MUX3" style="text;html=1;align=center;verticalAlign=middle;whiteSpace=wrap;rounded=0;" parent="1" vertex="1">
          <mxGeometry x="1154.8600000000001" y="900" width="60" height="30" as="geometry" />
        </mxCell>
        <mxCell id="_0G32NAz595wTfVrgWNU-149" value="MUX7" style="text;html=1;align=center;verticalAlign=middle;whiteSpace=wrap;rounded=0;" parent="1" vertex="1">
          <mxGeometry x="1909.8600000000001" y="1145" width="60" height="30" as="geometry" />
        </mxCell>
        <mxCell id="_0G32NAz595wTfVrgWNU-150" value="MUX8" style="text;html=1;align=center;verticalAlign=middle;whiteSpace=wrap;rounded=0;" parent="1" vertex="1">
          <mxGeometry x="1909.8600000000001" y="1285" width="60" height="30" as="geometry" />
        </mxCell>
        <mxCell id="_0G32NAz595wTfVrgWNU-151" value="MUX9" style="text;html=1;align=center;verticalAlign=middle;whiteSpace=wrap;rounded=0;" parent="1" vertex="1">
          <mxGeometry x="1908.72" y="1405" width="60" height="30" as="geometry" />
        </mxCell>
        <mxCell id="_0G32NAz595wTfVrgWNU-152" value="MUX10" style="text;html=1;align=center;verticalAlign=middle;whiteSpace=wrap;rounded=0;" parent="1" vertex="1">
          <mxGeometry x="2063.86" y="1268" width="60" height="30" as="geometry" />
        </mxCell>
        <mxCell id="_0G32NAz595wTfVrgWNU-153" value="MUX11" style="text;html=1;align=center;verticalAlign=middle;whiteSpace=wrap;rounded=0;" parent="1" vertex="1">
          <mxGeometry x="1934.8600000000001" y="545" width="60" height="30" as="geometry" />
        </mxCell>
        <mxCell id="_0G32NAz595wTfVrgWNU-200" style="edgeStyle=orthogonalEdgeStyle;rounded=0;orthogonalLoop=1;jettySize=auto;html=1;entryX=0.5;entryY=0;entryDx=0;entryDy=0;" parent="1" source="_0G32NAz595wTfVrgWNU-61" target="_0G32NAz595wTfVrgWNU-154" edge="1">
          <mxGeometry relative="1" as="geometry">
            <Array as="points">
              <mxPoint x="1870" y="328" />
              <mxPoint x="1965" y="328" />
            </Array>
          </mxGeometry>
        </mxCell>
        <mxCell id="_0G32NAz595wTfVrgWNU-154" value="MUX12" style="text;html=1;align=center;verticalAlign=middle;whiteSpace=wrap;rounded=0;" parent="1" vertex="1">
          <mxGeometry x="1934.8600000000001" y="347.5" width="60" height="30" as="geometry" />
        </mxCell>
        <mxCell id="_0G32NAz595wTfVrgWNU-155" value="MUX13" style="text;html=1;align=center;verticalAlign=middle;whiteSpace=wrap;rounded=0;" parent="1" vertex="1">
          <mxGeometry x="1494.8600000000001" y="322.5" width="60" height="30" as="geometry" />
        </mxCell>
        <mxCell id="_0G32NAz595wTfVrgWNU-156" value="MUX15" style="text;html=1;align=center;verticalAlign=middle;whiteSpace=wrap;rounded=0;" parent="1" vertex="1">
          <mxGeometry x="1174.8600000000001" y="300" width="60" height="30" as="geometry" />
        </mxCell>
        <mxCell id="_0G32NAz595wTfVrgWNU-157" value="MUX16" style="text;html=1;align=center;verticalAlign=middle;whiteSpace=wrap;rounded=0;" parent="1" vertex="1">
          <mxGeometry x="994.8600000000001" y="300" width="60" height="30" as="geometry" />
        </mxCell>
        <mxCell id="_0G32NAz595wTfVrgWNU-158" value="MUX17" style="text;html=1;align=center;verticalAlign=middle;whiteSpace=wrap;rounded=0;" parent="1" vertex="1">
          <mxGeometry x="729.8600000000001" y="300" width="60" height="30" as="geometry" />
        </mxCell>
        <mxCell id="_0G32NAz595wTfVrgWNU-159" value="MUX18" style="text;html=1;align=center;verticalAlign=middle;whiteSpace=wrap;rounded=0;" parent="1" vertex="1">
          <mxGeometry x="575.0000000000001" y="642.5" width="60" height="30" as="geometry" />
        </mxCell>
        <mxCell id="_0G32NAz595wTfVrgWNU-173" style="edgeStyle=orthogonalEdgeStyle;rounded=0;orthogonalLoop=1;jettySize=auto;html=1;exitX=0.75;exitY=0;exitDx=0;exitDy=0;entryX=1;entryY=0.75;entryDx=0;entryDy=0;" parent="1" source="NP07StkK-O7kic4M9z5p-14" target="iTuuwq5CignK22YuEiSl-85" edge="1">
          <mxGeometry relative="1" as="geometry">
            <Array as="points">
              <mxPoint x="1310" y="790" />
              <mxPoint x="1410" y="790" />
            </Array>
            <mxPoint x="1410" y="420" as="targetPoint" />
          </mxGeometry>
        </mxCell>
        <mxCell id="_0G32NAz595wTfVrgWNU-174" value="1" style="edgeLabel;html=1;align=center;verticalAlign=middle;resizable=0;points=[];" parent="_0G32NAz595wTfVrgWNU-173" vertex="1" connectable="0">
          <mxGeometry x="0.9315" relative="1" as="geometry">
            <mxPoint y="108" as="offset" />
          </mxGeometry>
        </mxCell>
        <mxCell id="iTuuwq5CignK22YuEiSl-90" value="1" style="edgeLabel;html=1;align=center;verticalAlign=middle;resizable=0;points=[];" vertex="1" connectable="0" parent="_0G32NAz595wTfVrgWNU-173">
          <mxGeometry x="0.7459" y="3" relative="1" as="geometry">
            <mxPoint x="2" as="offset" />
          </mxGeometry>
        </mxCell>
        <mxCell id="_0G32NAz595wTfVrgWNU-176" style="edgeStyle=orthogonalEdgeStyle;rounded=0;orthogonalLoop=1;jettySize=auto;html=1;exitX=1;exitY=0.5;exitDx=0;exitDy=0;exitPerimeter=0;entryX=0.5;entryY=0;entryDx=0;entryDy=0;" parent="1" source="_0G32NAz595wTfVrgWNU-172" target="_0G32NAz595wTfVrgWNU-156" edge="1">
          <mxGeometry relative="1" as="geometry" />
        </mxCell>
        <mxCell id="_0G32NAz595wTfVrgWNU-172" value="" style="verticalLabelPosition=bottom;shadow=0;dashed=0;align=center;html=1;verticalAlign=top;shape=mxgraph.electrical.logic_gates.logic_gate;operation=and;rotation=-180;" parent="1" vertex="1">
          <mxGeometry x="1264.86" y="200" width="64.86" height="40" as="geometry" />
        </mxCell>
        <mxCell id="_0G32NAz595wTfVrgWNU-175" value="B" style="text;html=1;align=center;verticalAlign=middle;whiteSpace=wrap;rounded=0;" parent="1" vertex="1">
          <mxGeometry x="1307.36" y="180" width="60" height="30" as="geometry" />
        </mxCell>
        <mxCell id="_0G32NAz595wTfVrgWNU-180" style="edgeStyle=orthogonalEdgeStyle;rounded=0;orthogonalLoop=1;jettySize=auto;html=1;entryX=0.5;entryY=1;entryDx=0;entryDy=0;" parent="1" source="_0G32NAz595wTfVrgWNU-179" target="Pv4LteulCFaErLVc3rtw-38" edge="1">
          <mxGeometry relative="1" as="geometry" />
        </mxCell>
        <mxCell id="_0G32NAz595wTfVrgWNU-179" value="RegDst[1:0]" style="text;html=1;align=center;verticalAlign=middle;whiteSpace=wrap;rounded=0;" parent="1" vertex="1">
          <mxGeometry x="929.86" y="917.25" width="60" height="30" as="geometry" />
        </mxCell>
        <mxCell id="_0G32NAz595wTfVrgWNU-183" style="edgeStyle=orthogonalEdgeStyle;rounded=0;orthogonalLoop=1;jettySize=auto;html=1;" parent="1" source="_0G32NAz595wTfVrgWNU-181" target="NP07StkK-O7kic4M9z5p-54" edge="1">
          <mxGeometry relative="1" as="geometry" />
        </mxCell>
        <mxCell id="_0G32NAz595wTfVrgWNU-181" value="ExtendType" style="text;html=1;align=center;verticalAlign=middle;whiteSpace=wrap;rounded=0;" parent="1" vertex="1">
          <mxGeometry x="1054.8600000000001" y="1125" width="60" height="30" as="geometry" />
        </mxCell>
        <mxCell id="_0G32NAz595wTfVrgWNU-185" style="edgeStyle=orthogonalEdgeStyle;rounded=0;orthogonalLoop=1;jettySize=auto;html=1;exitX=0.5;exitY=0;exitDx=0;exitDy=0;entryX=0.5;entryY=1;entryDx=0;entryDy=0;" parent="1" source="_0G32NAz595wTfVrgWNU-184" target="NP07StkK-O7kic4M9z5p-21" edge="1">
          <mxGeometry relative="1" as="geometry" />
        </mxCell>
        <mxCell id="_0G32NAz595wTfVrgWNU-184" value="ALUSrc" style="text;html=1;align=center;verticalAlign=middle;whiteSpace=wrap;rounded=0;" parent="1" vertex="1">
          <mxGeometry x="1154.86" y="1020" width="60" height="30" as="geometry" />
        </mxCell>
        <mxCell id="iTuuwq5CignK22YuEiSl-62" style="edgeStyle=orthogonalEdgeStyle;rounded=0;orthogonalLoop=1;jettySize=auto;html=1;entryX=0.5;entryY=0;entryDx=0;entryDy=0;" edge="1" parent="1" source="_0G32NAz595wTfVrgWNU-186" target="iTuuwq5CignK22YuEiSl-4">
          <mxGeometry relative="1" as="geometry" />
        </mxCell>
        <mxCell id="_0G32NAz595wTfVrgWNU-186" value="StoreType[1:0]" style="text;html=1;align=center;verticalAlign=middle;whiteSpace=wrap;rounded=0;" parent="1" vertex="1">
          <mxGeometry x="1494.86" y="737.5" width="89" height="45" as="geometry" />
        </mxCell>
        <mxCell id="_0G32NAz595wTfVrgWNU-190" style="edgeStyle=orthogonalEdgeStyle;rounded=0;orthogonalLoop=1;jettySize=auto;html=1;exitX=0.5;exitY=0;exitDx=0;exitDy=0;entryX=0.5;entryY=1;entryDx=0;entryDy=0;" parent="1" source="_0G32NAz595wTfVrgWNU-189" target="_0G32NAz595wTfVrgWNU-52" edge="1">
          <mxGeometry relative="1" as="geometry" />
        </mxCell>
        <mxCell id="_0G32NAz595wTfVrgWNU-189" value="StoreType[1:0]" style="text;html=1;align=center;verticalAlign=middle;whiteSpace=wrap;rounded=0;" parent="1" vertex="1">
          <mxGeometry x="2063.86" y="1405" width="60" height="30" as="geometry" />
        </mxCell>
        <mxCell id="_0G32NAz595wTfVrgWNU-197" style="edgeStyle=orthogonalEdgeStyle;rounded=0;orthogonalLoop=1;jettySize=auto;html=1;exitX=0.274;exitY=0.233;exitDx=0;exitDy=0;entryX=0.5;entryY=1;entryDx=0;entryDy=0;exitPerimeter=0;" parent="1" source="_0G32NAz595wTfVrgWNU-61" target="Pv4LteulCFaErLVc3rtw-56" edge="1">
          <mxGeometry relative="1" as="geometry">
            <Array as="points">
              <mxPoint x="1870" y="690" />
              <mxPoint x="1965" y="690" />
            </Array>
          </mxGeometry>
        </mxCell>
        <mxCell id="_0G32NAz595wTfVrgWNU-198" value="Addr[1]" style="text;html=1;align=center;verticalAlign=middle;whiteSpace=wrap;rounded=0;" parent="1" vertex="1">
          <mxGeometry x="1958.86" y="670" width="60" height="30" as="geometry" />
        </mxCell>
        <mxCell id="_0G32NAz595wTfVrgWNU-201" value="Addr[0]" style="text;html=1;align=center;verticalAlign=middle;whiteSpace=wrap;rounded=0;" parent="1" vertex="1">
          <mxGeometry x="1958.8600000000001" y="310" width="60" height="30" as="geometry" />
        </mxCell>
        <mxCell id="_0G32NAz595wTfVrgWNU-203" style="edgeStyle=orthogonalEdgeStyle;rounded=0;orthogonalLoop=1;jettySize=auto;html=1;exitX=0.5;exitY=0;exitDx=0;exitDy=0;entryX=0.5;entryY=1;entryDx=0;entryDy=0;" parent="1" source="_0G32NAz595wTfVrgWNU-202" target="Pv4LteulCFaErLVc3rtw-63" edge="1">
          <mxGeometry relative="1" as="geometry" />
        </mxCell>
        <mxCell id="_0G32NAz595wTfVrgWNU-202" value="LoadType[2:0]" style="text;html=1;align=center;verticalAlign=middle;whiteSpace=wrap;rounded=0;" parent="1" vertex="1">
          <mxGeometry x="1469.86" y="450" width="60" height="30" as="geometry" />
        </mxCell>
        <mxCell id="_0G32NAz595wTfVrgWNU-205" style="edgeStyle=orthogonalEdgeStyle;rounded=0;orthogonalLoop=1;jettySize=auto;html=1;entryX=0.5;entryY=0;entryDx=0;entryDy=0;" parent="1" source="_0G32NAz595wTfVrgWNU-204" target="_0G32NAz595wTfVrgWNU-157" edge="1">
          <mxGeometry relative="1" as="geometry" />
        </mxCell>
        <mxCell id="_0G32NAz595wTfVrgWNU-204" value="J" style="text;html=1;align=center;verticalAlign=middle;whiteSpace=wrap;rounded=0;" parent="1" vertex="1">
          <mxGeometry x="994.86" y="220" width="60" height="30" as="geometry" />
        </mxCell>
        <mxCell id="_0G32NAz595wTfVrgWNU-207" style="edgeStyle=orthogonalEdgeStyle;rounded=0;orthogonalLoop=1;jettySize=auto;html=1;exitX=0.5;exitY=1;exitDx=0;exitDy=0;entryX=0.5;entryY=0;entryDx=0;entryDy=0;" parent="1" source="_0G32NAz595wTfVrgWNU-206" target="_0G32NAz595wTfVrgWNU-158" edge="1">
          <mxGeometry relative="1" as="geometry" />
        </mxCell>
        <mxCell id="_0G32NAz595wTfVrgWNU-206" value="JR" style="text;html=1;align=center;verticalAlign=middle;whiteSpace=wrap;rounded=0;" parent="1" vertex="1">
          <mxGeometry x="729.86" y="220" width="60" height="30" as="geometry" />
        </mxCell>
        <mxCell id="_0G32NAz595wTfVrgWNU-209" style="edgeStyle=orthogonalEdgeStyle;rounded=0;orthogonalLoop=1;jettySize=auto;html=1;exitX=0.5;exitY=0;exitDx=0;exitDy=0;entryX=0.5;entryY=1;entryDx=0;entryDy=0;" parent="1" source="_0G32NAz595wTfVrgWNU-208" target="_0G32NAz595wTfVrgWNU-140" edge="1">
          <mxGeometry relative="1" as="geometry" />
        </mxCell>
        <mxCell id="_0G32NAz595wTfVrgWNU-208" value="RegDst[1:0]" style="text;html=1;align=center;verticalAlign=middle;whiteSpace=wrap;rounded=0;" parent="1" vertex="1">
          <mxGeometry x="575" y="765" width="60" height="30" as="geometry" />
        </mxCell>
        <mxCell id="_0G32NAz595wTfVrgWNU-213" style="edgeStyle=orthogonalEdgeStyle;rounded=0;orthogonalLoop=1;jettySize=auto;html=1;entryX=0;entryY=0.5;entryDx=0;entryDy=0;" parent="1" target="NP07StkK-O7kic4M9z5p-14" edge="1">
          <mxGeometry relative="1" as="geometry">
            <mxPoint x="1390" y="641" as="sourcePoint" />
          </mxGeometry>
        </mxCell>
        <mxCell id="_0G32NAz595wTfVrgWNU-214" value="ALUCtr[3:0]" style="text;html=1;align=center;verticalAlign=middle;whiteSpace=wrap;rounded=0;" parent="1" vertex="1">
          <mxGeometry x="1312.36" y="612.5" width="60" height="30" as="geometry" />
        </mxCell>
        <mxCell id="_0G32NAz595wTfVrgWNU-215" value="MemWr" style="text;html=1;align=center;verticalAlign=middle;whiteSpace=wrap;rounded=0;" parent="1" vertex="1">
          <mxGeometry x="2099.86" y="895" width="60" height="30" as="geometry" />
        </mxCell>
        <mxCell id="_0G32NAz595wTfVrgWNU-217" style="edgeStyle=orthogonalEdgeStyle;rounded=0;orthogonalLoop=1;jettySize=auto;html=1;exitX=0.5;exitY=0;exitDx=0;exitDy=0;entryX=0.893;entryY=1;entryDx=0;entryDy=0;entryPerimeter=0;" parent="1" source="_0G32NAz595wTfVrgWNU-215" target="NP07StkK-O7kic4M9z5p-110" edge="1">
          <mxGeometry relative="1" as="geometry" />
        </mxCell>
        <mxCell id="iTuuwq5CignK22YuEiSl-2" value="" style="shape=waypoint;sketch=0;fillStyle=solid;size=6;pointerEvents=1;points=[];fillColor=none;resizable=0;rotatable=0;perimeter=centerPerimeter;snapToPoint=1;" vertex="1" parent="1">
          <mxGeometry x="1320.3600000000001" y="660.5" width="20" height="20" as="geometry" />
        </mxCell>
        <mxCell id="iTuuwq5CignK22YuEiSl-52" style="edgeStyle=orthogonalEdgeStyle;rounded=0;orthogonalLoop=1;jettySize=auto;html=1;exitX=1;exitY=0.5;exitDx=0;exitDy=0;entryX=0.5;entryY=0;entryDx=0;entryDy=0;" edge="1" parent="1" source="iTuuwq5CignK22YuEiSl-4" target="_0G32NAz595wTfVrgWNU-20">
          <mxGeometry relative="1" as="geometry" />
        </mxCell>
        <mxCell id="iTuuwq5CignK22YuEiSl-4" value="" style="rounded=1;whiteSpace=wrap;html=1;" vertex="1" parent="1">
          <mxGeometry x="1409.86" y="832.5" width="30" height="68.75" as="geometry" />
        </mxCell>
        <mxCell id="iTuuwq5CignK22YuEiSl-5" value="RegData[7:0]" style="text;html=1;align=center;verticalAlign=middle;whiteSpace=wrap;rounded=0;" vertex="1" parent="1">
          <mxGeometry x="1129.86" y="1108.75" width="60" height="30" as="geometry" />
        </mxCell>
        <mxCell id="iTuuwq5CignK22YuEiSl-54" style="edgeStyle=orthogonalEdgeStyle;rounded=0;orthogonalLoop=1;jettySize=auto;html=1;exitX=1;exitY=0.5;exitDx=0;exitDy=0;entryX=0.5;entryY=0;entryDx=0;entryDy=0;" edge="1" parent="1" source="iTuuwq5CignK22YuEiSl-8" target="_0G32NAz595wTfVrgWNU-18">
          <mxGeometry relative="1" as="geometry" />
        </mxCell>
        <mxCell id="iTuuwq5CignK22YuEiSl-8" value="" style="rounded=1;whiteSpace=wrap;html=1;" vertex="1" parent="1">
          <mxGeometry x="1409.86" y="1040" width="30" height="68.75" as="geometry" />
        </mxCell>
        <mxCell id="iTuuwq5CignK22YuEiSl-53" style="edgeStyle=orthogonalEdgeStyle;rounded=0;orthogonalLoop=1;jettySize=auto;html=1;exitX=1;exitY=0.5;exitDx=0;exitDy=0;entryX=0.5;entryY=0;entryDx=0;entryDy=0;" edge="1" parent="1" source="iTuuwq5CignK22YuEiSl-9" target="_0G32NAz595wTfVrgWNU-19">
          <mxGeometry relative="1" as="geometry" />
        </mxCell>
        <mxCell id="iTuuwq5CignK22YuEiSl-9" value="" style="rounded=1;whiteSpace=wrap;html=1;" vertex="1" parent="1">
          <mxGeometry x="1409.86" y="930" width="30" height="68.75" as="geometry" />
        </mxCell>
        <mxCell id="iTuuwq5CignK22YuEiSl-32" style="edgeStyle=orthogonalEdgeStyle;rounded=0;orthogonalLoop=1;jettySize=auto;html=1;entryX=0;entryY=0.25;entryDx=0;entryDy=0;" edge="1" parent="1" source="iTuuwq5CignK22YuEiSl-16" target="iTuuwq5CignK22YuEiSl-4">
          <mxGeometry relative="1" as="geometry" />
        </mxCell>
        <mxCell id="iTuuwq5CignK22YuEiSl-38" style="edgeStyle=orthogonalEdgeStyle;rounded=0;orthogonalLoop=1;jettySize=auto;html=1;entryX=0;entryY=0.25;entryDx=0;entryDy=0;" edge="1" parent="1" source="iTuuwq5CignK22YuEiSl-16" target="iTuuwq5CignK22YuEiSl-9">
          <mxGeometry relative="1" as="geometry" />
        </mxCell>
        <mxCell id="iTuuwq5CignK22YuEiSl-40" style="edgeStyle=orthogonalEdgeStyle;rounded=0;orthogonalLoop=1;jettySize=auto;html=1;entryX=0;entryY=0.25;entryDx=0;entryDy=0;" edge="1" parent="1" source="iTuuwq5CignK22YuEiSl-16" target="iTuuwq5CignK22YuEiSl-8">
          <mxGeometry relative="1" as="geometry" />
        </mxCell>
        <mxCell id="iTuuwq5CignK22YuEiSl-55" style="edgeStyle=orthogonalEdgeStyle;rounded=0;orthogonalLoop=1;jettySize=auto;html=1;entryX=0.5;entryY=0;entryDx=0;entryDy=0;" edge="1" parent="1" source="iTuuwq5CignK22YuEiSl-16" target="_0G32NAz595wTfVrgWNU-16">
          <mxGeometry relative="1" as="geometry">
            <Array as="points">
              <mxPoint x="1610" y="1140" />
              <mxPoint x="1610" y="1060" />
            </Array>
          </mxGeometry>
        </mxCell>
        <mxCell id="iTuuwq5CignK22YuEiSl-16" value="" style="shape=waypoint;sketch=0;fillStyle=solid;size=6;pointerEvents=1;points=[];fillColor=none;resizable=0;rotatable=0;perimeter=centerPerimeter;snapToPoint=1;" vertex="1" parent="1">
          <mxGeometry x="1110" y="1129.75" width="20" height="20" as="geometry" />
        </mxCell>
        <mxCell id="iTuuwq5CignK22YuEiSl-31" style="edgeStyle=orthogonalEdgeStyle;rounded=0;orthogonalLoop=1;jettySize=auto;html=1;entryX=0;entryY=0.5;entryDx=0;entryDy=0;" edge="1" parent="1" source="iTuuwq5CignK22YuEiSl-20" target="iTuuwq5CignK22YuEiSl-4">
          <mxGeometry relative="1" as="geometry">
            <Array as="points">
              <mxPoint x="1290" y="1180" />
              <mxPoint x="1290" y="867" />
            </Array>
          </mxGeometry>
        </mxCell>
        <mxCell id="iTuuwq5CignK22YuEiSl-41" style="edgeStyle=orthogonalEdgeStyle;rounded=0;orthogonalLoop=1;jettySize=auto;html=1;entryX=0;entryY=0.5;entryDx=0;entryDy=0;" edge="1" parent="1" source="iTuuwq5CignK22YuEiSl-20" target="iTuuwq5CignK22YuEiSl-8">
          <mxGeometry relative="1" as="geometry">
            <Array as="points">
              <mxPoint x="1290" y="1180" />
              <mxPoint x="1290" y="1074" />
            </Array>
          </mxGeometry>
        </mxCell>
        <mxCell id="iTuuwq5CignK22YuEiSl-20" value="" style="shape=waypoint;sketch=0;fillStyle=solid;size=6;pointerEvents=1;points=[];fillColor=none;resizable=0;rotatable=0;perimeter=centerPerimeter;snapToPoint=1;" vertex="1" parent="1">
          <mxGeometry x="1110" y="1170" width="20" height="20" as="geometry" />
        </mxCell>
        <mxCell id="iTuuwq5CignK22YuEiSl-37" style="edgeStyle=orthogonalEdgeStyle;rounded=0;orthogonalLoop=1;jettySize=auto;html=1;entryX=0;entryY=0.75;entryDx=0;entryDy=0;" edge="1" parent="1" source="iTuuwq5CignK22YuEiSl-21" target="iTuuwq5CignK22YuEiSl-9">
          <mxGeometry relative="1" as="geometry">
            <Array as="points">
              <mxPoint x="1350" y="1222" />
              <mxPoint x="1350" y="982" />
            </Array>
          </mxGeometry>
        </mxCell>
        <mxCell id="iTuuwq5CignK22YuEiSl-21" value="" style="shape=waypoint;sketch=0;fillStyle=solid;size=6;pointerEvents=1;points=[];fillColor=none;resizable=0;rotatable=0;perimeter=centerPerimeter;snapToPoint=1;" vertex="1" parent="1">
          <mxGeometry x="1110" y="1212" width="20" height="20" as="geometry" />
        </mxCell>
        <mxCell id="iTuuwq5CignK22YuEiSl-33" style="edgeStyle=orthogonalEdgeStyle;rounded=0;orthogonalLoop=1;jettySize=auto;html=1;entryX=0;entryY=0.75;entryDx=0;entryDy=0;" edge="1" parent="1" source="iTuuwq5CignK22YuEiSl-22" target="iTuuwq5CignK22YuEiSl-4">
          <mxGeometry relative="1" as="geometry">
            <Array as="points">
              <mxPoint x="1310" y="1265" />
              <mxPoint x="1310" y="884" />
            </Array>
          </mxGeometry>
        </mxCell>
        <mxCell id="iTuuwq5CignK22YuEiSl-22" value="" style="shape=waypoint;sketch=0;fillStyle=solid;size=6;pointerEvents=1;points=[];fillColor=none;resizable=0;rotatable=0;perimeter=centerPerimeter;snapToPoint=1;" vertex="1" parent="1">
          <mxGeometry x="1110" y="1255" width="20" height="20" as="geometry" />
        </mxCell>
        <mxCell id="iTuuwq5CignK22YuEiSl-39" value="" style="shape=waypoint;sketch=0;fillStyle=solid;size=6;pointerEvents=1;points=[];fillColor=none;resizable=0;rotatable=0;perimeter=centerPerimeter;snapToPoint=1;" vertex="1" parent="1">
          <mxGeometry x="1259.86" y="937" width="20" height="20" as="geometry" />
        </mxCell>
        <mxCell id="iTuuwq5CignK22YuEiSl-42" value="" style="shape=waypoint;sketch=0;fillStyle=solid;size=6;pointerEvents=1;points=[];fillColor=none;resizable=0;rotatable=0;perimeter=centerPerimeter;snapToPoint=1;" vertex="1" parent="1">
          <mxGeometry x="1259.86" y="1047" width="20" height="20" as="geometry" />
        </mxCell>
        <mxCell id="iTuuwq5CignK22YuEiSl-43" value="" style="shape=waypoint;sketch=0;fillStyle=solid;size=6;pointerEvents=1;points=[];fillColor=none;resizable=0;rotatable=0;perimeter=centerPerimeter;snapToPoint=1;" vertex="1" parent="1">
          <mxGeometry x="1280" y="1065" width="20" height="20" as="geometry" />
        </mxCell>
        <mxCell id="iTuuwq5CignK22YuEiSl-49" style="edgeStyle=orthogonalEdgeStyle;rounded=0;orthogonalLoop=1;jettySize=auto;html=1;entryX=0.5;entryY=0;entryDx=0;entryDy=0;" edge="1" parent="1" source="iTuuwq5CignK22YuEiSl-48" target="iTuuwq5CignK22YuEiSl-9">
          <mxGeometry relative="1" as="geometry">
            <Array as="points">
              <mxPoint x="1470" y="765" />
              <mxPoint x="1470" y="910" />
              <mxPoint x="1425" y="910" />
            </Array>
          </mxGeometry>
        </mxCell>
        <mxCell id="iTuuwq5CignK22YuEiSl-50" style="edgeStyle=orthogonalEdgeStyle;rounded=0;orthogonalLoop=1;jettySize=auto;html=1;entryX=0.5;entryY=0;entryDx=0;entryDy=0;exitX=0.525;exitY=0.048;exitDx=0;exitDy=0;exitPerimeter=0;" edge="1" parent="1">
          <mxGeometry relative="1" as="geometry">
            <mxPoint x="1469.8599999999997" y="760" as="sourcePoint" />
            <mxPoint x="1423.8599999999997" y="1040" as="targetPoint" />
            <Array as="points">
              <mxPoint x="1470" y="1020" />
              <mxPoint x="1424" y="1020" />
            </Array>
          </mxGeometry>
        </mxCell>
        <mxCell id="iTuuwq5CignK22YuEiSl-48" value="" style="shape=waypoint;sketch=0;fillStyle=solid;size=6;pointerEvents=1;points=[];fillColor=none;resizable=0;rotatable=0;perimeter=centerPerimeter;snapToPoint=1;" vertex="1" parent="1">
          <mxGeometry x="1460.86" y="750" width="20" height="20" as="geometry" />
        </mxCell>
        <mxCell id="iTuuwq5CignK22YuEiSl-56" value="" style="shape=waypoint;sketch=0;fillStyle=solid;size=6;pointerEvents=1;points=[];fillColor=none;resizable=0;rotatable=0;perimeter=centerPerimeter;snapToPoint=1;" vertex="1" parent="1">
          <mxGeometry x="1260" y="1130" width="20" height="20" as="geometry" />
        </mxCell>
        <mxCell id="iTuuwq5CignK22YuEiSl-67" style="edgeStyle=orthogonalEdgeStyle;rounded=0;orthogonalLoop=1;jettySize=auto;html=1;entryX=0.5;entryY=1;entryDx=0;entryDy=0;" edge="1" parent="1" source="iTuuwq5CignK22YuEiSl-63" target="_0G32NAz595wTfVrgWNU-16">
          <mxGeometry relative="1" as="geometry" />
        </mxCell>
        <mxCell id="iTuuwq5CignK22YuEiSl-83" value="1" style="edgeLabel;html=1;align=center;verticalAlign=middle;resizable=0;points=[];" vertex="1" connectable="0" parent="iTuuwq5CignK22YuEiSl-67">
          <mxGeometry x="0.5237" y="-3" relative="1" as="geometry">
            <mxPoint as="offset" />
          </mxGeometry>
        </mxCell>
        <mxCell id="iTuuwq5CignK22YuEiSl-63" value="" style="verticalLabelPosition=bottom;shadow=0;dashed=0;align=center;html=1;verticalAlign=top;shape=mxgraph.electrical.logic_gates.logic_gate;operation=or;rotation=-180;" vertex="1" parent="1">
          <mxGeometry x="1909.86" y="1047" width="60" height="27" as="geometry" />
        </mxCell>
        <mxCell id="iTuuwq5CignK22YuEiSl-64" style="edgeStyle=orthogonalEdgeStyle;rounded=0;orthogonalLoop=1;jettySize=auto;html=1;exitX=1;exitY=0.5;exitDx=0;exitDy=0;entryX=0.5;entryY=1;entryDx=0;entryDy=0;exitPerimeter=0;" edge="1" parent="1" source="_0G32NAz595wTfVrgWNU-29" target="_0G32NAz595wTfVrgWNU-20">
          <mxGeometry relative="1" as="geometry" />
        </mxCell>
        <mxCell id="iTuuwq5CignK22YuEiSl-80" value="1" style="edgeLabel;html=1;align=center;verticalAlign=middle;resizable=0;points=[];" vertex="1" connectable="0" parent="iTuuwq5CignK22YuEiSl-64">
          <mxGeometry x="0.5382" y="-1" relative="1" as="geometry">
            <mxPoint as="offset" />
          </mxGeometry>
        </mxCell>
        <mxCell id="iTuuwq5CignK22YuEiSl-69" style="edgeStyle=orthogonalEdgeStyle;rounded=0;orthogonalLoop=1;jettySize=auto;html=1;entryX=0;entryY=0.75;entryDx=0;entryDy=0;entryPerimeter=0;" edge="1" parent="1" source="_0G32NAz595wTfVrgWNU-46" target="_0G32NAz595wTfVrgWNU-30">
          <mxGeometry relative="1" as="geometry" />
        </mxCell>
        <mxCell id="iTuuwq5CignK22YuEiSl-70" style="edgeStyle=orthogonalEdgeStyle;rounded=0;orthogonalLoop=1;jettySize=auto;html=1;entryX=0;entryY=0.75;entryDx=0;entryDy=0;entryPerimeter=0;" edge="1" parent="1" source="_0G32NAz595wTfVrgWNU-46" target="_0G32NAz595wTfVrgWNU-27">
          <mxGeometry relative="1" as="geometry">
            <Array as="points">
              <mxPoint x="2200" y="1013" />
              <mxPoint x="2080" y="1013" />
            </Array>
          </mxGeometry>
        </mxCell>
        <mxCell id="iTuuwq5CignK22YuEiSl-71" style="edgeStyle=orthogonalEdgeStyle;rounded=0;orthogonalLoop=1;jettySize=auto;html=1;entryX=0;entryY=0.75;entryDx=0;entryDy=0;entryPerimeter=0;" edge="1" parent="1">
          <mxGeometry relative="1" as="geometry">
            <mxPoint x="2200" y="977" as="sourcePoint" />
            <mxPoint x="1969.8599999999997" y="1053.75" as="targetPoint" />
            <Array as="points">
              <mxPoint x="2200" y="1054" />
            </Array>
          </mxGeometry>
        </mxCell>
        <mxCell id="iTuuwq5CignK22YuEiSl-72" value="" style="shape=waypoint;sketch=0;fillStyle=solid;size=6;pointerEvents=1;points=[];fillColor=none;resizable=0;rotatable=0;perimeter=centerPerimeter;snapToPoint=1;" vertex="1" parent="1">
          <mxGeometry x="2190" y="922.25" width="20" height="20" as="geometry" />
        </mxCell>
        <mxCell id="iTuuwq5CignK22YuEiSl-73" value="" style="shape=waypoint;sketch=0;fillStyle=solid;size=6;pointerEvents=1;points=[];fillColor=none;resizable=0;rotatable=0;perimeter=centerPerimeter;snapToPoint=1;" vertex="1" parent="1">
          <mxGeometry x="2190" y="1043" width="20" height="20" as="geometry" />
        </mxCell>
        <mxCell id="iTuuwq5CignK22YuEiSl-74" value="" style="shape=waypoint;sketch=0;fillStyle=solid;size=6;pointerEvents=1;points=[];fillColor=none;resizable=0;rotatable=0;perimeter=centerPerimeter;snapToPoint=1;" vertex="1" parent="1">
          <mxGeometry x="2190" y="1002" width="20" height="20" as="geometry" />
        </mxCell>
        <mxCell id="iTuuwq5CignK22YuEiSl-76" value="" style="shape=waypoint;sketch=0;fillStyle=solid;size=6;pointerEvents=1;points=[];fillColor=none;resizable=0;rotatable=0;perimeter=centerPerimeter;snapToPoint=1;" vertex="1" parent="1">
          <mxGeometry x="1959.86" y="1057.75" width="20" height="20" as="geometry" />
        </mxCell>
        <mxCell id="iTuuwq5CignK22YuEiSl-77" value="" style="shape=waypoint;sketch=0;fillStyle=solid;size=6;pointerEvents=1;points=[];fillColor=none;resizable=0;rotatable=0;perimeter=centerPerimeter;snapToPoint=1;" vertex="1" parent="1">
          <mxGeometry x="1960" y="977" width="20" height="20" as="geometry" />
        </mxCell>
        <mxCell id="iTuuwq5CignK22YuEiSl-78" value="" style="shape=waypoint;sketch=0;fillStyle=solid;size=6;pointerEvents=1;points=[];fillColor=none;resizable=0;rotatable=0;perimeter=centerPerimeter;snapToPoint=1;" vertex="1" parent="1">
          <mxGeometry x="1960" y="1018" width="20" height="20" as="geometry" />
        </mxCell>
        <mxCell id="iTuuwq5CignK22YuEiSl-79" value="" style="group" vertex="1" connectable="0" parent="1">
          <mxGeometry x="2039.8600000000001" y="1110" width="60" height="30" as="geometry" />
        </mxCell>
        <mxCell id="_0G32NAz595wTfVrgWNU-39" value="MemWr" style="text;html=1;align=center;verticalAlign=middle;whiteSpace=wrap;rounded=0;" parent="iTuuwq5CignK22YuEiSl-79" vertex="1">
          <mxGeometry width="60" height="30" as="geometry" />
        </mxCell>
        <mxCell id="_0G32NAz595wTfVrgWNU-40" value="" style="endArrow=none;html=1;rounded=0;" parent="iTuuwq5CignK22YuEiSl-79" edge="1">
          <mxGeometry width="50" height="50" relative="1" as="geometry">
            <mxPoint x="10" as="sourcePoint" />
            <mxPoint x="50" as="targetPoint" />
          </mxGeometry>
        </mxCell>
        <mxCell id="iTuuwq5CignK22YuEiSl-85" value="" style="rounded=1;whiteSpace=wrap;html=1;rotation=90;" vertex="1" parent="1">
          <mxGeometry x="1409.8600000000001" y="340" width="30" height="60" as="geometry" />
        </mxCell>
        <mxCell id="iTuuwq5CignK22YuEiSl-86" value="" style="shape=waypoint;sketch=0;fillStyle=solid;size=6;pointerEvents=1;points=[];fillColor=none;resizable=0;rotatable=0;perimeter=centerPerimeter;snapToPoint=1;" vertex="1" parent="1">
          <mxGeometry x="1399.86" y="471.5" width="20" height="20" as="geometry" />
        </mxCell>
        <mxCell id="iTuuwq5CignK22YuEiSl-89" style="edgeStyle=orthogonalEdgeStyle;rounded=0;orthogonalLoop=1;jettySize=auto;html=1;exitX=1;exitY=0.5;exitDx=0;exitDy=0;exitPerimeter=0;entryX=1;entryY=0.25;entryDx=0;entryDy=0;" edge="1" parent="1" source="iTuuwq5CignK22YuEiSl-87" target="iTuuwq5CignK22YuEiSl-85">
          <mxGeometry relative="1" as="geometry" />
        </mxCell>
        <mxCell id="iTuuwq5CignK22YuEiSl-91" value="1" style="edgeLabel;html=1;align=center;verticalAlign=middle;resizable=0;points=[];" vertex="1" connectable="0" parent="iTuuwq5CignK22YuEiSl-89">
          <mxGeometry x="-0.2918" y="-1" relative="1" as="geometry">
            <mxPoint as="offset" />
          </mxGeometry>
        </mxCell>
        <mxCell id="iTuuwq5CignK22YuEiSl-87" value="" style="verticalLabelPosition=bottom;shadow=0;dashed=0;align=center;html=1;verticalAlign=top;shape=mxgraph.electrical.logic_gates.inverter_2;rotation=-90;" vertex="1" parent="1">
          <mxGeometry x="1419.72" y="419.99999999999994" width="40.14" height="30" as="geometry" />
        </mxCell>
        <mxCell id="iTuuwq5CignK22YuEiSl-88" style="edgeStyle=orthogonalEdgeStyle;rounded=0;orthogonalLoop=1;jettySize=auto;html=1;entryX=0;entryY=0.5;entryDx=0;entryDy=0;entryPerimeter=0;" edge="1" parent="1" source="iTuuwq5CignK22YuEiSl-86" target="iTuuwq5CignK22YuEiSl-87">
          <mxGeometry relative="1" as="geometry" />
        </mxCell>
        <mxCell id="iTuuwq5CignK22YuEiSl-92" style="edgeStyle=orthogonalEdgeStyle;rounded=0;orthogonalLoop=1;jettySize=auto;html=1;exitX=0;exitY=0.5;exitDx=0;exitDy=0;entryX=0;entryY=0.25;entryDx=0;entryDy=0;entryPerimeter=0;" edge="1" parent="1" source="iTuuwq5CignK22YuEiSl-85" target="_0G32NAz595wTfVrgWNU-172">
          <mxGeometry relative="1" as="geometry" />
        </mxCell>
        <mxCell id="iTuuwq5CignK22YuEiSl-93" value="" style="shape=waypoint;sketch=0;fillStyle=solid;size=6;pointerEvents=1;points=[];fillColor=none;resizable=0;rotatable=0;perimeter=centerPerimeter;snapToPoint=1;" vertex="1" parent="1">
          <mxGeometry x="1860" y="680" width="20" height="20" as="geometry" />
        </mxCell>
        <mxCell id="iTuuwq5CignK22YuEiSl-95" value="MUX4" style="text;html=1;align=center;verticalAlign=middle;whiteSpace=wrap;rounded=0;fontSize=10;" vertex="1" parent="1">
          <mxGeometry x="1394.8600000000001" y="830" width="60" height="30" as="geometry" />
        </mxCell>
        <mxCell id="iTuuwq5CignK22YuEiSl-96" value="MUX6" style="text;html=1;align=center;verticalAlign=middle;whiteSpace=wrap;rounded=0;fontSize=10;" vertex="1" parent="1">
          <mxGeometry x="1394.8600000000001" y="1040" width="60" height="30" as="geometry" />
        </mxCell>
        <mxCell id="iTuuwq5CignK22YuEiSl-97" value="MUX5" style="text;html=1;align=center;verticalAlign=middle;whiteSpace=wrap;rounded=0;fontSize=10;" vertex="1" parent="1">
          <mxGeometry x="1394.8600000000001" y="930" width="60" height="30" as="geometry" />
        </mxCell>
        <mxCell id="iTuuwq5CignK22YuEiSl-100" style="edgeStyle=orthogonalEdgeStyle;rounded=0;orthogonalLoop=1;jettySize=auto;html=1;exitX=0;exitY=0.5;exitDx=0;exitDy=0;entryX=0;entryY=0.5;entryDx=0;entryDy=0;" edge="1" parent="1" target="iTuuwq5CignK22YuEiSl-98">
          <mxGeometry relative="1" as="geometry">
            <mxPoint x="1340" y="369.8947368421052" as="sourcePoint" />
          </mxGeometry>
        </mxCell>
        <mxCell id="iTuuwq5CignK22YuEiSl-98" value="MUX14" style="text;html=1;align=center;verticalAlign=middle;whiteSpace=wrap;rounded=0;" vertex="1" parent="1">
          <mxGeometry x="1394.8600000000001" y="355" width="60" height="30" as="geometry" />
        </mxCell>
        <mxCell id="iTuuwq5CignK22YuEiSl-101" value="BranchType" style="text;html=1;align=center;verticalAlign=middle;whiteSpace=wrap;rounded=0;" vertex="1" parent="1">
          <mxGeometry x="1312.36" y="340" width="60" height="30" as="geometry" />
        </mxCell>
        <mxCell id="iTuuwq5CignK22YuEiSl-103" value="00" style="text;html=1;align=center;verticalAlign=middle;whiteSpace=wrap;rounded=0;" vertex="1" parent="1">
          <mxGeometry x="859.86" y="851.88" width="60" height="30" as="geometry" />
        </mxCell>
        <mxCell id="iTuuwq5CignK22YuEiSl-104" value="01" style="text;html=1;align=center;verticalAlign=middle;whiteSpace=wrap;rounded=0;" vertex="1" parent="1">
          <mxGeometry x="859.86" y="865" width="60" height="30" as="geometry" />
        </mxCell>
        <mxCell id="iTuuwq5CignK22YuEiSl-105" value="10" style="text;html=1;align=center;verticalAlign=middle;whiteSpace=wrap;rounded=0;" vertex="1" parent="1">
          <mxGeometry x="859.86" y="887.25" width="60" height="30" as="geometry" />
        </mxCell>
        <mxCell id="iTuuwq5CignK22YuEiSl-106" value="1" style="text;html=1;align=center;verticalAlign=middle;whiteSpace=wrap;rounded=0;" vertex="1" parent="1">
          <mxGeometry x="1034.86" y="1022" width="60" height="30" as="geometry" />
        </mxCell>
        <mxCell id="iTuuwq5CignK22YuEiSl-107" value="0" style="text;html=1;align=center;verticalAlign=middle;whiteSpace=wrap;rounded=0;" vertex="1" parent="1">
          <mxGeometry x="1034.86" y="1063" width="60" height="30" as="geometry" />
        </mxCell>
        <mxCell id="iTuuwq5CignK22YuEiSl-108" value="1" style="text;html=1;align=center;verticalAlign=middle;whiteSpace=wrap;rounded=0;" vertex="1" parent="1">
          <mxGeometry x="1140" y="919.38" width="60" height="30" as="geometry" />
        </mxCell>
        <mxCell id="iTuuwq5CignK22YuEiSl-109" value="00" style="text;html=1;align=center;verticalAlign=middle;whiteSpace=wrap;rounded=0;" vertex="1" parent="1">
          <mxGeometry x="1384.86" y="840" width="60" height="30" as="geometry" />
        </mxCell>
        <mxCell id="iTuuwq5CignK22YuEiSl-110" value="0" style="text;html=1;align=center;verticalAlign=middle;whiteSpace=wrap;rounded=0;" vertex="1" parent="1">
          <mxGeometry x="1137.9999999999998" y="953" width="60" height="30" as="geometry" />
        </mxCell>
        <mxCell id="iTuuwq5CignK22YuEiSl-111" value="01" style="text;html=1;align=center;verticalAlign=middle;whiteSpace=wrap;rounded=0;" vertex="1" parent="1">
          <mxGeometry x="1384.86" y="857.25" width="60" height="30" as="geometry" />
        </mxCell>
        <mxCell id="iTuuwq5CignK22YuEiSl-112" value="11" style="text;html=1;align=center;verticalAlign=middle;whiteSpace=wrap;rounded=0;" vertex="1" parent="1">
          <mxGeometry x="1384.86" y="881.25" width="60" height="30" as="geometry" />
        </mxCell>
        <mxCell id="iTuuwq5CignK22YuEiSl-115" value="00/01" style="text;html=1;align=center;verticalAlign=middle;whiteSpace=wrap;rounded=0;" vertex="1" parent="1">
          <mxGeometry x="1384.86" y="942.25" width="60" height="30" as="geometry" />
        </mxCell>
        <mxCell id="iTuuwq5CignK22YuEiSl-118" value="11" style="text;html=1;align=center;verticalAlign=middle;whiteSpace=wrap;rounded=0;" vertex="1" parent="1">
          <mxGeometry x="1384.86" y="972" width="60" height="30" as="geometry" />
        </mxCell>
        <mxCell id="iTuuwq5CignK22YuEiSl-119" value="00" style="text;html=1;align=center;verticalAlign=middle;whiteSpace=wrap;rounded=0;" vertex="1" parent="1">
          <mxGeometry x="1384.86" y="1047" width="60" height="30" as="geometry" />
        </mxCell>
        <mxCell id="iTuuwq5CignK22YuEiSl-120" value="01/11" style="text;html=1;align=center;verticalAlign=middle;whiteSpace=wrap;rounded=0;" vertex="1" parent="1">
          <mxGeometry x="1394.86" y="1067" width="60" height="30" as="geometry" />
        </mxCell>
        <mxCell id="iTuuwq5CignK22YuEiSl-121" value="00" style="text;html=1;align=center;verticalAlign=middle;whiteSpace=wrap;rounded=0;" vertex="1" parent="1">
          <mxGeometry x="2049.86" y="1280" width="60" height="30" as="geometry" />
        </mxCell>
        <mxCell id="iTuuwq5CignK22YuEiSl-122" value="01" style="text;html=1;align=center;verticalAlign=middle;whiteSpace=wrap;rounded=0;" vertex="1" parent="1">
          <mxGeometry x="2049.86" y="1305" width="60" height="30" as="geometry" />
        </mxCell>
        <mxCell id="iTuuwq5CignK22YuEiSl-123" value="11" style="text;html=1;align=center;verticalAlign=middle;whiteSpace=wrap;rounded=0;" vertex="1" parent="1">
          <mxGeometry x="2049.86" y="1340" width="60" height="30" as="geometry" />
        </mxCell>
        <mxCell id="iTuuwq5CignK22YuEiSl-124" value="1" style="text;html=1;align=center;verticalAlign=middle;whiteSpace=wrap;rounded=0;" vertex="1" parent="1">
          <mxGeometry x="1948.86" y="608" width="60" height="30" as="geometry" />
        </mxCell>
        <mxCell id="iTuuwq5CignK22YuEiSl-125" value="0" style="text;html=1;align=center;verticalAlign=middle;whiteSpace=wrap;rounded=0;" vertex="1" parent="1">
          <mxGeometry x="1949.86" y="558" width="60" height="30" as="geometry" />
        </mxCell>
        <mxCell id="iTuuwq5CignK22YuEiSl-126" value="0" style="text;html=1;align=center;verticalAlign=middle;whiteSpace=wrap;rounded=0;" vertex="1" parent="1">
          <mxGeometry x="1949.86" y="363" width="60" height="30" as="geometry" />
        </mxCell>
        <mxCell id="iTuuwq5CignK22YuEiSl-129" value="1" style="text;html=1;align=center;verticalAlign=middle;whiteSpace=wrap;rounded=0;" vertex="1" parent="1">
          <mxGeometry x="1948.86" y="408" width="60" height="30" as="geometry" />
        </mxCell>
        <mxCell id="iTuuwq5CignK22YuEiSl-130" value="011" style="text;html=1;align=center;verticalAlign=middle;whiteSpace=wrap;rounded=0;" vertex="1" parent="1">
          <mxGeometry x="1529.8600000000001" y="310" width="60" height="30" as="geometry" />
        </mxCell>
        <mxCell id="iTuuwq5CignK22YuEiSl-131" value="000" style="text;html=1;align=center;verticalAlign=middle;whiteSpace=wrap;rounded=0;" vertex="1" parent="1">
          <mxGeometry x="1509.3600000000001" y="340" width="60" height="30" as="geometry" />
        </mxCell>
        <mxCell id="iTuuwq5CignK22YuEiSl-132" value="100" style="text;html=1;align=center;verticalAlign=middle;whiteSpace=wrap;rounded=0;" vertex="1" parent="1">
          <mxGeometry x="1499.8600000000001" y="355" width="60" height="30" as="geometry" />
        </mxCell>
        <mxCell id="iTuuwq5CignK22YuEiSl-133" value="001" style="text;html=1;align=center;verticalAlign=middle;whiteSpace=wrap;rounded=0;" vertex="1" parent="1">
          <mxGeometry x="1509.3600000000001" y="370" width="60" height="30" as="geometry" />
        </mxCell>
        <mxCell id="iTuuwq5CignK22YuEiSl-134" value="101" style="text;html=1;align=center;verticalAlign=middle;whiteSpace=wrap;rounded=0;" vertex="1" parent="1">
          <mxGeometry x="1509.3600000000001" y="390" width="60" height="30" as="geometry" />
        </mxCell>
        <mxCell id="iTuuwq5CignK22YuEiSl-135" value="1" style="text;html=1;align=center;verticalAlign=middle;whiteSpace=wrap;rounded=0;" vertex="1" parent="1">
          <mxGeometry x="1379.86" y="363" width="60" height="30" as="geometry" />
        </mxCell>
        <mxCell id="iTuuwq5CignK22YuEiSl-136" value="0" style="text;html=1;align=center;verticalAlign=middle;whiteSpace=wrap;rounded=0;" vertex="1" parent="1">
          <mxGeometry x="1409.86" y="363" width="60" height="30" as="geometry" />
        </mxCell>
        <mxCell id="iTuuwq5CignK22YuEiSl-138" value="0" style="text;html=1;align=center;verticalAlign=middle;whiteSpace=wrap;rounded=0;" vertex="1" parent="1">
          <mxGeometry x="1189.86" y="310" width="60" height="30" as="geometry" />
        </mxCell>
        <mxCell id="iTuuwq5CignK22YuEiSl-139" value="1" style="text;html=1;align=center;verticalAlign=middle;whiteSpace=wrap;rounded=0;" vertex="1" parent="1">
          <mxGeometry x="1189.86" y="352.5" width="60" height="30" as="geometry" />
        </mxCell>
        <mxCell id="iTuuwq5CignK22YuEiSl-140" value="0" style="text;html=1;align=center;verticalAlign=middle;whiteSpace=wrap;rounded=0;" vertex="1" parent="1">
          <mxGeometry x="1009.9999999999999" y="310" width="60" height="30" as="geometry" />
        </mxCell>
        <mxCell id="iTuuwq5CignK22YuEiSl-141" value="1" style="text;html=1;align=center;verticalAlign=middle;whiteSpace=wrap;rounded=0;" vertex="1" parent="1">
          <mxGeometry x="1009.8599999999999" y="353" width="60" height="30" as="geometry" />
        </mxCell>
        <mxCell id="iTuuwq5CignK22YuEiSl-142" value="0" style="text;html=1;align=center;verticalAlign=middle;whiteSpace=wrap;rounded=0;" vertex="1" parent="1">
          <mxGeometry x="749.8599999999999" y="310" width="60" height="30" as="geometry" />
        </mxCell>
        <mxCell id="iTuuwq5CignK22YuEiSl-143" value="1" style="text;html=1;align=center;verticalAlign=middle;whiteSpace=wrap;rounded=0;" vertex="1" parent="1">
          <mxGeometry x="749.8599999999999" y="353" width="60" height="30" as="geometry" />
        </mxCell>
        <mxCell id="iTuuwq5CignK22YuEiSl-144" value="00" style="text;html=1;align=center;verticalAlign=middle;whiteSpace=wrap;rounded=0;" vertex="1" parent="1">
          <mxGeometry x="560" y="650.5" width="60" height="30" as="geometry" />
        </mxCell>
        <mxCell id="iTuuwq5CignK22YuEiSl-145" value="01" style="text;html=1;align=center;verticalAlign=middle;whiteSpace=wrap;rounded=0;" vertex="1" parent="1">
          <mxGeometry x="560" y="675" width="60" height="30" as="geometry" />
        </mxCell>
        <mxCell id="iTuuwq5CignK22YuEiSl-146" value="10" style="text;html=1;align=center;verticalAlign=middle;whiteSpace=wrap;rounded=0;" vertex="1" parent="1">
          <mxGeometry x="560" y="702.5" width="60" height="30" as="geometry" />
        </mxCell>
      </root>
    </mxGraphModel>
  </diagram>
</mxfile>
